M48
; DRILL file {KiCad (5.1.2-1)-1} date 2019 October 23, Wednesday 09:53:46
; FORMAT={-:-/ absolute / metric / decimal}
; #@! TF.CreationDate,2019-10-23T09:53:46+02:00
; #@! TF.GenerationSoftware,Kicad,Pcbnew,(5.1.2-1)-1
FMAT,2
METRIC
T1C1.000
T2C2.700
%
G90
G05
T1
X125.902Y-93.298
X125.902Y-95.838
X128.442Y-93.298
X128.442Y-95.838
X130.982Y-93.298
X130.982Y-95.838
X133.522Y-93.298
X133.522Y-95.838
X136.062Y-93.298
X136.062Y-95.838
X138.602Y-93.298
X138.602Y-95.838
X141.142Y-93.298
X141.142Y-95.838
X143.682Y-93.298
X143.682Y-95.838
X146.222Y-93.298
X146.222Y-95.838
X148.762Y-93.298
X148.762Y-95.838
X151.302Y-93.298
X151.302Y-95.838
X153.842Y-93.298
X153.842Y-95.838
X156.382Y-93.298
X156.382Y-95.838
X158.922Y-93.298
X158.922Y-95.838
X161.462Y-93.298
X161.462Y-95.838
X164.002Y-93.298
X164.002Y-95.838
X166.542Y-93.298
X166.542Y-95.838
X169.082Y-93.298
X169.082Y-95.838
X171.622Y-93.298
X171.622Y-95.838
X174.162Y-93.298
X174.162Y-95.838
X154.052Y-105.998
X156.592Y-105.998
X159.132Y-105.998
X161.672Y-105.998
X164.212Y-105.998
X166.752Y-105.998
X169.292Y-105.998
X171.832Y-105.998
X174.372Y-105.998
X126.112Y-105.998
X128.652Y-105.998
X131.192Y-105.998
X133.732Y-105.998
X136.272Y-105.998
X138.812Y-105.998
X141.352Y-105.998
T2
X179.032Y-94.568
X121.032Y-94.568
X121.032Y-117.568
X179.032Y-117.568
T0
M30
