G04 #@! TF.GenerationSoftware,KiCad,Pcbnew,(5.1.2-1)-1*
G04 #@! TF.CreationDate,2019-10-23T09:51:25+02:00*
G04 #@! TF.ProjectId,rpiz_pi_platter,7270697a-5f70-4695-9f70-6c6174746572,1.0*
G04 #@! TF.SameCoordinates,Original*
G04 #@! TF.FileFunction,Copper,L2,Bot*
G04 #@! TF.FilePolarity,Positive*
%FSLAX46Y46*%
G04 Gerber Fmt 4.6, Leading zero omitted, Abs format (unit mm)*
G04 Created by KiCad (PCBNEW (5.1.2-1)-1) date 2019-10-23 09:51:25*
%MOMM*%
%LPD*%
G04 APERTURE LIST*
%ADD10O,1.700000X1.700000*%
%ADD11R,1.700000X1.700000*%
%ADD12C,0.250000*%
%ADD13C,0.254000*%
G04 APERTURE END LIST*
D10*
X126112000Y-105998000D03*
X128652000Y-105998000D03*
X131192000Y-105998000D03*
X133732000Y-105998000D03*
X136272000Y-105998000D03*
X138812000Y-105998000D03*
D11*
X141352000Y-105998000D03*
X174372000Y-105998000D03*
D10*
X171832000Y-105998000D03*
X169292000Y-105998000D03*
X166752000Y-105998000D03*
X164212000Y-105998000D03*
X161672000Y-105998000D03*
X159132000Y-105998000D03*
X156592000Y-105998000D03*
X154052000Y-105998000D03*
D11*
X125902000Y-95838000D03*
D10*
X125902000Y-93298000D03*
X128442000Y-95838000D03*
X128442000Y-93298000D03*
X130982000Y-95838000D03*
X130982000Y-93298000D03*
X133522000Y-95838000D03*
X133522000Y-93298000D03*
X136062000Y-95838000D03*
X136062000Y-93298000D03*
X138602000Y-95838000D03*
X138602000Y-93298000D03*
X141142000Y-95838000D03*
X141142000Y-93298000D03*
X143682000Y-95838000D03*
X143682000Y-93298000D03*
X146222000Y-95838000D03*
X146222000Y-93298000D03*
X148762000Y-95838000D03*
X148762000Y-93298000D03*
X151302000Y-95838000D03*
X151302000Y-93298000D03*
X153842000Y-95838000D03*
X153842000Y-93298000D03*
X156382000Y-95838000D03*
X156382000Y-93298000D03*
X158922000Y-95838000D03*
X158922000Y-93298000D03*
X161462000Y-95838000D03*
X161462000Y-93298000D03*
X164002000Y-95838000D03*
X164002000Y-93298000D03*
X166542000Y-95838000D03*
X166542000Y-93298000D03*
X169082000Y-95838000D03*
X169082000Y-93298000D03*
X171622000Y-95838000D03*
X171622000Y-93298000D03*
X174162000Y-95838000D03*
X174162000Y-93298000D03*
D12*
X135096999Y-94662999D02*
X135497999Y-94662999D01*
X135002000Y-94568000D02*
X135096999Y-94662999D01*
X125902000Y-96938000D02*
X126112000Y-97148000D01*
X125902000Y-95838000D02*
X125902000Y-96938000D01*
X126112000Y-97148000D02*
X126112000Y-98378000D01*
X126112000Y-98378000D02*
X124842000Y-99648000D01*
X124842000Y-99648000D02*
X123572000Y-99648000D01*
X123572000Y-99648000D02*
X122302000Y-100918000D01*
X122302000Y-100918000D02*
X122302000Y-108538000D01*
X122302000Y-108538000D02*
X123572000Y-109808000D01*
X123572000Y-109808000D02*
X137542000Y-109808000D01*
X138812000Y-108538000D02*
X138812000Y-107200081D01*
X138812000Y-107200081D02*
X138812000Y-105998000D01*
X137542000Y-109808000D02*
X138812000Y-108538000D01*
X140082000Y-109808000D02*
X138812000Y-108538000D01*
X173102000Y-109808000D02*
X140082000Y-109808000D01*
X174372000Y-108538000D02*
X173102000Y-109808000D01*
X174372000Y-105998000D02*
X174372000Y-108538000D01*
X138812000Y-104728000D02*
X138812000Y-105998000D01*
X138812000Y-99648000D02*
X138812000Y-104728000D01*
X140312002Y-98147998D02*
X138812000Y-99648000D01*
X142506999Y-95273999D02*
X142506999Y-96992999D01*
X141352000Y-98147998D02*
X140312002Y-98147998D01*
X142506999Y-96992999D02*
X141352000Y-98147998D01*
X143212998Y-94568000D02*
X142506999Y-95273999D01*
X144952000Y-94568000D02*
X143212998Y-94568000D01*
X146222000Y-95838000D02*
X144952000Y-94568000D01*
X125902000Y-93298000D02*
X128442000Y-93298000D01*
X123846758Y-93298000D02*
X123833769Y-93356311D01*
X128442000Y-105788000D02*
X128652000Y-105998000D01*
X128442000Y-95838000D02*
X128442000Y-105788000D01*
X130982000Y-97040081D02*
X131192000Y-97250081D01*
X130982000Y-95838000D02*
X130982000Y-97040081D01*
X131192000Y-97250081D02*
X131192000Y-99648000D01*
X133732000Y-102188000D02*
X133732000Y-105998000D01*
X131192000Y-99648000D02*
X133732000Y-102188000D01*
X174162000Y-97040081D02*
X174372000Y-97250081D01*
X174162000Y-95838000D02*
X174162000Y-97040081D01*
X174372000Y-97250081D02*
X174229919Y-97250081D01*
X174229919Y-97250081D02*
X171832000Y-99648000D01*
X171832000Y-99648000D02*
X171832000Y-105998000D01*
X136272000Y-96048000D02*
X136062000Y-95838000D01*
X136272000Y-105998000D02*
X136272000Y-96048000D01*
X135261002Y-95838000D02*
X136062000Y-95838000D01*
X133896003Y-94473001D02*
X135261002Y-95838000D01*
X132157001Y-94473001D02*
X133896003Y-94473001D01*
X130982000Y-93298000D02*
X132157001Y-94473001D01*
X140292001Y-94147999D02*
X141142000Y-93298000D01*
X137426999Y-94473001D02*
X139966999Y-94473001D01*
X139966999Y-94473001D02*
X140292001Y-94147999D01*
X136062000Y-95838000D02*
X137426999Y-94473001D01*
X147586999Y-92122999D02*
X147912001Y-92448001D01*
X147912001Y-92448001D02*
X148762000Y-93298000D01*
X142317001Y-92122999D02*
X147586999Y-92122999D01*
X141142000Y-93298000D02*
X142317001Y-92122999D01*
X155532001Y-94988001D02*
X156382000Y-95838000D01*
X155017001Y-94473001D02*
X155532001Y-94988001D01*
X155017001Y-92733999D02*
X155017001Y-94473001D01*
X154406001Y-92122999D02*
X155017001Y-92733999D01*
X149937001Y-92122999D02*
X154406001Y-92122999D01*
X148762000Y-93298000D02*
X149937001Y-92122999D01*
X160286999Y-94473001D02*
X160612001Y-94147999D01*
X160612001Y-94147999D02*
X161462000Y-93298000D01*
X157746999Y-94473001D02*
X160286999Y-94473001D01*
X156382000Y-95838000D02*
X157746999Y-94473001D01*
X165692001Y-94147999D02*
X166542000Y-93298000D01*
X165366999Y-94473001D02*
X165692001Y-94147999D01*
X162637001Y-94473001D02*
X165366999Y-94473001D01*
X161462000Y-93298000D02*
X162637001Y-94473001D01*
X167906999Y-94662999D02*
X172986999Y-94662999D01*
X173312001Y-94988001D02*
X174162000Y-95838000D01*
X172986999Y-94662999D02*
X173312001Y-94988001D01*
X166542000Y-93298000D02*
X167906999Y-94662999D01*
X171832000Y-108538000D02*
X171832000Y-105998000D01*
X136272000Y-105998000D02*
X136272000Y-108538000D01*
X130982000Y-93298000D02*
X129922000Y-92238000D01*
X146432000Y-108538000D02*
X143682000Y-105788000D01*
X166752000Y-107268000D02*
X165482000Y-108538000D01*
X143682000Y-105788000D02*
X143682000Y-95838000D01*
X165482000Y-108538000D02*
X146432000Y-108538000D01*
X166752000Y-105998000D02*
X166752000Y-107268000D01*
X150242000Y-102188000D02*
X148762000Y-100708000D01*
X155227001Y-104633001D02*
X152782000Y-102188000D01*
X148762000Y-100708000D02*
X148762000Y-95838000D01*
X152782000Y-102188000D02*
X150242000Y-102188000D01*
X156122998Y-107268000D02*
X155227001Y-106372003D01*
X155227001Y-106372003D02*
X155227001Y-104633001D01*
X157862000Y-107268000D02*
X156122998Y-107268000D01*
X159132000Y-105998000D02*
X157862000Y-107268000D01*
X151302000Y-97040081D02*
X151512000Y-97250081D01*
X151302000Y-95838000D02*
X151302000Y-97040081D01*
X151512000Y-97250081D02*
X151512000Y-98378000D01*
X151512000Y-98378000D02*
X152782000Y-99648000D01*
X152782000Y-99648000D02*
X155322000Y-99648000D01*
X155322000Y-99648000D02*
X157862000Y-102188000D01*
X157862000Y-102188000D02*
X160402000Y-102188000D01*
X161672000Y-103458000D02*
X161672000Y-105998000D01*
X160402000Y-102188000D02*
X161672000Y-103458000D01*
X148292998Y-94568000D02*
X150032000Y-94568000D01*
X147586999Y-96402001D02*
X147586999Y-95273999D01*
X147702000Y-96517002D02*
X147586999Y-96402001D01*
X147702000Y-103458000D02*
X147702000Y-96517002D01*
X150032000Y-94568000D02*
X151302000Y-93298000D01*
X147586999Y-95273999D02*
X148292998Y-94568000D01*
X150242000Y-105998000D02*
X147702000Y-103458000D01*
X154052000Y-105998000D02*
X150242000Y-105998000D01*
X155017001Y-97013001D02*
X157767001Y-97013001D01*
X153842000Y-95838000D02*
X155017001Y-97013001D01*
X164212000Y-103458000D02*
X164212000Y-105998000D01*
X157767001Y-97013001D02*
X164212000Y-103458000D01*
X156592000Y-103458000D02*
X156592000Y-105998000D01*
X151512000Y-100918000D02*
X154052000Y-100918000D01*
X154052000Y-100918000D02*
X156592000Y-103458000D01*
X153842000Y-93298000D02*
X152666999Y-94473001D01*
X150126999Y-99532999D02*
X151512000Y-100918000D01*
X150927997Y-94473001D02*
X150126999Y-95273999D01*
X150126999Y-95273999D02*
X150126999Y-99532999D01*
X152666999Y-94473001D02*
X150927997Y-94473001D01*
D13*
G36*
X176974907Y-92061425D02*
G01*
X176525425Y-92510907D01*
X176172270Y-93039442D01*
X175929012Y-93626719D01*
X175805000Y-94250168D01*
X175805000Y-94885832D01*
X175929012Y-95509281D01*
X176172270Y-96096558D01*
X176525425Y-96625093D01*
X176974907Y-97074575D01*
X177503442Y-97427730D01*
X178090719Y-97670988D01*
X178714168Y-97795000D01*
X179349832Y-97795000D01*
X179973281Y-97670988D01*
X180560558Y-97427730D01*
X181089093Y-97074575D01*
X181538575Y-96625093D01*
X181822000Y-96200916D01*
X181822001Y-115935085D01*
X181538575Y-115510907D01*
X181089093Y-115061425D01*
X180560558Y-114708270D01*
X179973281Y-114465012D01*
X179349832Y-114341000D01*
X178714168Y-114341000D01*
X178090719Y-114465012D01*
X177503442Y-114708270D01*
X176974907Y-115061425D01*
X176525425Y-115510907D01*
X176172270Y-116039442D01*
X175929012Y-116626719D01*
X175805000Y-117250168D01*
X175805000Y-117885832D01*
X175929012Y-118509281D01*
X176172270Y-119096558D01*
X176525425Y-119625093D01*
X176974907Y-120074575D01*
X177399083Y-120358000D01*
X122664917Y-120358000D01*
X123089093Y-120074575D01*
X123538575Y-119625093D01*
X123891730Y-119096558D01*
X124134988Y-118509281D01*
X124259000Y-117885832D01*
X124259000Y-117250168D01*
X124134988Y-116626719D01*
X123891730Y-116039442D01*
X123538575Y-115510907D01*
X123089093Y-115061425D01*
X122560558Y-114708270D01*
X121973281Y-114465012D01*
X121349832Y-114341000D01*
X120714168Y-114341000D01*
X120090719Y-114465012D01*
X119503442Y-114708270D01*
X118974907Y-115061425D01*
X118525425Y-115510907D01*
X118242000Y-115935083D01*
X118242000Y-96200917D01*
X118525425Y-96625093D01*
X118974907Y-97074575D01*
X119503442Y-97427730D01*
X120090719Y-97670988D01*
X120714168Y-97795000D01*
X121349832Y-97795000D01*
X121973281Y-97670988D01*
X122560558Y-97427730D01*
X123089093Y-97074575D01*
X123538575Y-96625093D01*
X123891730Y-96096558D01*
X124134988Y-95509281D01*
X124259000Y-94885832D01*
X124259000Y-94250168D01*
X124212508Y-94016440D01*
X124243441Y-94000803D01*
X124361304Y-93908496D01*
X124458894Y-93794969D01*
X124486234Y-93746512D01*
X124523401Y-93869034D01*
X124661294Y-94127014D01*
X124846866Y-94353134D01*
X124876687Y-94377607D01*
X124807820Y-94398498D01*
X124697506Y-94457463D01*
X124600815Y-94536815D01*
X124521463Y-94633506D01*
X124462498Y-94743820D01*
X124426188Y-94863518D01*
X124413928Y-94988000D01*
X124413928Y-96688000D01*
X124426188Y-96812482D01*
X124462498Y-96932180D01*
X124521463Y-97042494D01*
X124600815Y-97139185D01*
X124697506Y-97218537D01*
X124807820Y-97277502D01*
X124927518Y-97313812D01*
X125052000Y-97326072D01*
X125247674Y-97326072D01*
X125267026Y-97362276D01*
X125338201Y-97449002D01*
X125352000Y-97465816D01*
X125352001Y-98063197D01*
X124527199Y-98888000D01*
X123609322Y-98888000D01*
X123571999Y-98884324D01*
X123534676Y-98888000D01*
X123534667Y-98888000D01*
X123423014Y-98898997D01*
X123279753Y-98942454D01*
X123147724Y-99013026D01*
X123031999Y-99107999D01*
X123008201Y-99136997D01*
X121791003Y-100354196D01*
X121761999Y-100377999D01*
X121731015Y-100415754D01*
X121667026Y-100493724D01*
X121632127Y-100559015D01*
X121596454Y-100625754D01*
X121552997Y-100769015D01*
X121542000Y-100880668D01*
X121542000Y-100880678D01*
X121538324Y-100918000D01*
X121542000Y-100955322D01*
X121542001Y-108500668D01*
X121538324Y-108538000D01*
X121542001Y-108575332D01*
X121542001Y-108575333D01*
X121552998Y-108686986D01*
X121566180Y-108730442D01*
X121596454Y-108830246D01*
X121667026Y-108962276D01*
X121737379Y-109048000D01*
X121762000Y-109078001D01*
X121790998Y-109101799D01*
X123008201Y-110319003D01*
X123031999Y-110348001D01*
X123147724Y-110442974D01*
X123279753Y-110513546D01*
X123423014Y-110557003D01*
X123534667Y-110568000D01*
X123534676Y-110568000D01*
X123571999Y-110571676D01*
X123609322Y-110568000D01*
X137504678Y-110568000D01*
X137542000Y-110571676D01*
X137579322Y-110568000D01*
X137579333Y-110568000D01*
X137690986Y-110557003D01*
X137834247Y-110513546D01*
X137966276Y-110442974D01*
X138082001Y-110348001D01*
X138105804Y-110318997D01*
X138812000Y-109612802D01*
X139518201Y-110319003D01*
X139541999Y-110348001D01*
X139657724Y-110442974D01*
X139789753Y-110513546D01*
X139933014Y-110557003D01*
X140044667Y-110568000D01*
X140044676Y-110568000D01*
X140081999Y-110571676D01*
X140119322Y-110568000D01*
X173064678Y-110568000D01*
X173102000Y-110571676D01*
X173139322Y-110568000D01*
X173139333Y-110568000D01*
X173250986Y-110557003D01*
X173394247Y-110513546D01*
X173526276Y-110442974D01*
X173642001Y-110348001D01*
X173665804Y-110318997D01*
X174883003Y-109101799D01*
X174912001Y-109078001D01*
X175006974Y-108962276D01*
X175077546Y-108830247D01*
X175121003Y-108686986D01*
X175132000Y-108575333D01*
X175132000Y-108575324D01*
X175135676Y-108538001D01*
X175132000Y-108500678D01*
X175132000Y-107486072D01*
X175222000Y-107486072D01*
X175346482Y-107473812D01*
X175466180Y-107437502D01*
X175576494Y-107378537D01*
X175673185Y-107299185D01*
X175752537Y-107202494D01*
X175811502Y-107092180D01*
X175847812Y-106972482D01*
X175860072Y-106848000D01*
X175860072Y-105148000D01*
X175847812Y-105023518D01*
X175811502Y-104903820D01*
X175752537Y-104793506D01*
X175673185Y-104696815D01*
X175576494Y-104617463D01*
X175466180Y-104558498D01*
X175346482Y-104522188D01*
X175222000Y-104509928D01*
X173522000Y-104509928D01*
X173397518Y-104522188D01*
X173277820Y-104558498D01*
X173167506Y-104617463D01*
X173070815Y-104696815D01*
X172991463Y-104793506D01*
X172932498Y-104903820D01*
X172911607Y-104972687D01*
X172887134Y-104942866D01*
X172661014Y-104757294D01*
X172592000Y-104720405D01*
X172592000Y-99962801D01*
X174570841Y-97983961D01*
X174664247Y-97955627D01*
X174796276Y-97885055D01*
X174912001Y-97790082D01*
X175006974Y-97674357D01*
X175077546Y-97542328D01*
X175121003Y-97399067D01*
X175135677Y-97250081D01*
X175121003Y-97101095D01*
X175089655Y-96997753D01*
X175217134Y-96893134D01*
X175402706Y-96667014D01*
X175540599Y-96409034D01*
X175625513Y-96129111D01*
X175654185Y-95838000D01*
X175625513Y-95546889D01*
X175540599Y-95266966D01*
X175402706Y-95008986D01*
X175217134Y-94782866D01*
X174991014Y-94597294D01*
X174936209Y-94568000D01*
X174991014Y-94538706D01*
X175217134Y-94353134D01*
X175402706Y-94127014D01*
X175540599Y-93869034D01*
X175625513Y-93589111D01*
X175654185Y-93298000D01*
X175625513Y-93006889D01*
X175540599Y-92726966D01*
X175402706Y-92468986D01*
X175217134Y-92242866D01*
X174991014Y-92057294D01*
X174733034Y-91919401D01*
X174453111Y-91834487D01*
X174234950Y-91813000D01*
X174089050Y-91813000D01*
X173870889Y-91834487D01*
X173590966Y-91919401D01*
X173332986Y-92057294D01*
X173106866Y-92242866D01*
X172921294Y-92468986D01*
X172892000Y-92523791D01*
X172862706Y-92468986D01*
X172677134Y-92242866D01*
X172451014Y-92057294D01*
X172193034Y-91919401D01*
X171913111Y-91834487D01*
X171694950Y-91813000D01*
X171549050Y-91813000D01*
X171330889Y-91834487D01*
X171050966Y-91919401D01*
X170792986Y-92057294D01*
X170566866Y-92242866D01*
X170381294Y-92468986D01*
X170352000Y-92523791D01*
X170322706Y-92468986D01*
X170137134Y-92242866D01*
X169911014Y-92057294D01*
X169653034Y-91919401D01*
X169373111Y-91834487D01*
X169154950Y-91813000D01*
X169009050Y-91813000D01*
X168790889Y-91834487D01*
X168510966Y-91919401D01*
X168252986Y-92057294D01*
X168026866Y-92242866D01*
X167841294Y-92468986D01*
X167812000Y-92523791D01*
X167782706Y-92468986D01*
X167597134Y-92242866D01*
X167371014Y-92057294D01*
X167113034Y-91919401D01*
X166833111Y-91834487D01*
X166614950Y-91813000D01*
X166469050Y-91813000D01*
X166250889Y-91834487D01*
X165970966Y-91919401D01*
X165712986Y-92057294D01*
X165486866Y-92242866D01*
X165301294Y-92468986D01*
X165272000Y-92523791D01*
X165242706Y-92468986D01*
X165057134Y-92242866D01*
X164831014Y-92057294D01*
X164573034Y-91919401D01*
X164293111Y-91834487D01*
X164074950Y-91813000D01*
X163929050Y-91813000D01*
X163710889Y-91834487D01*
X163430966Y-91919401D01*
X163172986Y-92057294D01*
X162946866Y-92242866D01*
X162761294Y-92468986D01*
X162732000Y-92523791D01*
X162702706Y-92468986D01*
X162517134Y-92242866D01*
X162291014Y-92057294D01*
X162033034Y-91919401D01*
X161753111Y-91834487D01*
X161534950Y-91813000D01*
X161389050Y-91813000D01*
X161170889Y-91834487D01*
X160890966Y-91919401D01*
X160632986Y-92057294D01*
X160406866Y-92242866D01*
X160221294Y-92468986D01*
X160192000Y-92523791D01*
X160162706Y-92468986D01*
X159977134Y-92242866D01*
X159751014Y-92057294D01*
X159493034Y-91919401D01*
X159213111Y-91834487D01*
X158994950Y-91813000D01*
X158849050Y-91813000D01*
X158630889Y-91834487D01*
X158350966Y-91919401D01*
X158092986Y-92057294D01*
X157866866Y-92242866D01*
X157681294Y-92468986D01*
X157652000Y-92523791D01*
X157622706Y-92468986D01*
X157437134Y-92242866D01*
X157211014Y-92057294D01*
X156953034Y-91919401D01*
X156673111Y-91834487D01*
X156454950Y-91813000D01*
X156309050Y-91813000D01*
X156090889Y-91834487D01*
X155810966Y-91919401D01*
X155552986Y-92057294D01*
X155477252Y-92119447D01*
X155135804Y-91778000D01*
X177399083Y-91778000D01*
X176974907Y-92061425D01*
X176974907Y-92061425D01*
G37*
X176974907Y-92061425D02*
X176525425Y-92510907D01*
X176172270Y-93039442D01*
X175929012Y-93626719D01*
X175805000Y-94250168D01*
X175805000Y-94885832D01*
X175929012Y-95509281D01*
X176172270Y-96096558D01*
X176525425Y-96625093D01*
X176974907Y-97074575D01*
X177503442Y-97427730D01*
X178090719Y-97670988D01*
X178714168Y-97795000D01*
X179349832Y-97795000D01*
X179973281Y-97670988D01*
X180560558Y-97427730D01*
X181089093Y-97074575D01*
X181538575Y-96625093D01*
X181822000Y-96200916D01*
X181822001Y-115935085D01*
X181538575Y-115510907D01*
X181089093Y-115061425D01*
X180560558Y-114708270D01*
X179973281Y-114465012D01*
X179349832Y-114341000D01*
X178714168Y-114341000D01*
X178090719Y-114465012D01*
X177503442Y-114708270D01*
X176974907Y-115061425D01*
X176525425Y-115510907D01*
X176172270Y-116039442D01*
X175929012Y-116626719D01*
X175805000Y-117250168D01*
X175805000Y-117885832D01*
X175929012Y-118509281D01*
X176172270Y-119096558D01*
X176525425Y-119625093D01*
X176974907Y-120074575D01*
X177399083Y-120358000D01*
X122664917Y-120358000D01*
X123089093Y-120074575D01*
X123538575Y-119625093D01*
X123891730Y-119096558D01*
X124134988Y-118509281D01*
X124259000Y-117885832D01*
X124259000Y-117250168D01*
X124134988Y-116626719D01*
X123891730Y-116039442D01*
X123538575Y-115510907D01*
X123089093Y-115061425D01*
X122560558Y-114708270D01*
X121973281Y-114465012D01*
X121349832Y-114341000D01*
X120714168Y-114341000D01*
X120090719Y-114465012D01*
X119503442Y-114708270D01*
X118974907Y-115061425D01*
X118525425Y-115510907D01*
X118242000Y-115935083D01*
X118242000Y-96200917D01*
X118525425Y-96625093D01*
X118974907Y-97074575D01*
X119503442Y-97427730D01*
X120090719Y-97670988D01*
X120714168Y-97795000D01*
X121349832Y-97795000D01*
X121973281Y-97670988D01*
X122560558Y-97427730D01*
X123089093Y-97074575D01*
X123538575Y-96625093D01*
X123891730Y-96096558D01*
X124134988Y-95509281D01*
X124259000Y-94885832D01*
X124259000Y-94250168D01*
X124212508Y-94016440D01*
X124243441Y-94000803D01*
X124361304Y-93908496D01*
X124458894Y-93794969D01*
X124486234Y-93746512D01*
X124523401Y-93869034D01*
X124661294Y-94127014D01*
X124846866Y-94353134D01*
X124876687Y-94377607D01*
X124807820Y-94398498D01*
X124697506Y-94457463D01*
X124600815Y-94536815D01*
X124521463Y-94633506D01*
X124462498Y-94743820D01*
X124426188Y-94863518D01*
X124413928Y-94988000D01*
X124413928Y-96688000D01*
X124426188Y-96812482D01*
X124462498Y-96932180D01*
X124521463Y-97042494D01*
X124600815Y-97139185D01*
X124697506Y-97218537D01*
X124807820Y-97277502D01*
X124927518Y-97313812D01*
X125052000Y-97326072D01*
X125247674Y-97326072D01*
X125267026Y-97362276D01*
X125338201Y-97449002D01*
X125352000Y-97465816D01*
X125352001Y-98063197D01*
X124527199Y-98888000D01*
X123609322Y-98888000D01*
X123571999Y-98884324D01*
X123534676Y-98888000D01*
X123534667Y-98888000D01*
X123423014Y-98898997D01*
X123279753Y-98942454D01*
X123147724Y-99013026D01*
X123031999Y-99107999D01*
X123008201Y-99136997D01*
X121791003Y-100354196D01*
X121761999Y-100377999D01*
X121731015Y-100415754D01*
X121667026Y-100493724D01*
X121632127Y-100559015D01*
X121596454Y-100625754D01*
X121552997Y-100769015D01*
X121542000Y-100880668D01*
X121542000Y-100880678D01*
X121538324Y-100918000D01*
X121542000Y-100955322D01*
X121542001Y-108500668D01*
X121538324Y-108538000D01*
X121542001Y-108575332D01*
X121542001Y-108575333D01*
X121552998Y-108686986D01*
X121566180Y-108730442D01*
X121596454Y-108830246D01*
X121667026Y-108962276D01*
X121737379Y-109048000D01*
X121762000Y-109078001D01*
X121790998Y-109101799D01*
X123008201Y-110319003D01*
X123031999Y-110348001D01*
X123147724Y-110442974D01*
X123279753Y-110513546D01*
X123423014Y-110557003D01*
X123534667Y-110568000D01*
X123534676Y-110568000D01*
X123571999Y-110571676D01*
X123609322Y-110568000D01*
X137504678Y-110568000D01*
X137542000Y-110571676D01*
X137579322Y-110568000D01*
X137579333Y-110568000D01*
X137690986Y-110557003D01*
X137834247Y-110513546D01*
X137966276Y-110442974D01*
X138082001Y-110348001D01*
X138105804Y-110318997D01*
X138812000Y-109612802D01*
X139518201Y-110319003D01*
X139541999Y-110348001D01*
X139657724Y-110442974D01*
X139789753Y-110513546D01*
X139933014Y-110557003D01*
X140044667Y-110568000D01*
X140044676Y-110568000D01*
X140081999Y-110571676D01*
X140119322Y-110568000D01*
X173064678Y-110568000D01*
X173102000Y-110571676D01*
X173139322Y-110568000D01*
X173139333Y-110568000D01*
X173250986Y-110557003D01*
X173394247Y-110513546D01*
X173526276Y-110442974D01*
X173642001Y-110348001D01*
X173665804Y-110318997D01*
X174883003Y-109101799D01*
X174912001Y-109078001D01*
X175006974Y-108962276D01*
X175077546Y-108830247D01*
X175121003Y-108686986D01*
X175132000Y-108575333D01*
X175132000Y-108575324D01*
X175135676Y-108538001D01*
X175132000Y-108500678D01*
X175132000Y-107486072D01*
X175222000Y-107486072D01*
X175346482Y-107473812D01*
X175466180Y-107437502D01*
X175576494Y-107378537D01*
X175673185Y-107299185D01*
X175752537Y-107202494D01*
X175811502Y-107092180D01*
X175847812Y-106972482D01*
X175860072Y-106848000D01*
X175860072Y-105148000D01*
X175847812Y-105023518D01*
X175811502Y-104903820D01*
X175752537Y-104793506D01*
X175673185Y-104696815D01*
X175576494Y-104617463D01*
X175466180Y-104558498D01*
X175346482Y-104522188D01*
X175222000Y-104509928D01*
X173522000Y-104509928D01*
X173397518Y-104522188D01*
X173277820Y-104558498D01*
X173167506Y-104617463D01*
X173070815Y-104696815D01*
X172991463Y-104793506D01*
X172932498Y-104903820D01*
X172911607Y-104972687D01*
X172887134Y-104942866D01*
X172661014Y-104757294D01*
X172592000Y-104720405D01*
X172592000Y-99962801D01*
X174570841Y-97983961D01*
X174664247Y-97955627D01*
X174796276Y-97885055D01*
X174912001Y-97790082D01*
X175006974Y-97674357D01*
X175077546Y-97542328D01*
X175121003Y-97399067D01*
X175135677Y-97250081D01*
X175121003Y-97101095D01*
X175089655Y-96997753D01*
X175217134Y-96893134D01*
X175402706Y-96667014D01*
X175540599Y-96409034D01*
X175625513Y-96129111D01*
X175654185Y-95838000D01*
X175625513Y-95546889D01*
X175540599Y-95266966D01*
X175402706Y-95008986D01*
X175217134Y-94782866D01*
X174991014Y-94597294D01*
X174936209Y-94568000D01*
X174991014Y-94538706D01*
X175217134Y-94353134D01*
X175402706Y-94127014D01*
X175540599Y-93869034D01*
X175625513Y-93589111D01*
X175654185Y-93298000D01*
X175625513Y-93006889D01*
X175540599Y-92726966D01*
X175402706Y-92468986D01*
X175217134Y-92242866D01*
X174991014Y-92057294D01*
X174733034Y-91919401D01*
X174453111Y-91834487D01*
X174234950Y-91813000D01*
X174089050Y-91813000D01*
X173870889Y-91834487D01*
X173590966Y-91919401D01*
X173332986Y-92057294D01*
X173106866Y-92242866D01*
X172921294Y-92468986D01*
X172892000Y-92523791D01*
X172862706Y-92468986D01*
X172677134Y-92242866D01*
X172451014Y-92057294D01*
X172193034Y-91919401D01*
X171913111Y-91834487D01*
X171694950Y-91813000D01*
X171549050Y-91813000D01*
X171330889Y-91834487D01*
X171050966Y-91919401D01*
X170792986Y-92057294D01*
X170566866Y-92242866D01*
X170381294Y-92468986D01*
X170352000Y-92523791D01*
X170322706Y-92468986D01*
X170137134Y-92242866D01*
X169911014Y-92057294D01*
X169653034Y-91919401D01*
X169373111Y-91834487D01*
X169154950Y-91813000D01*
X169009050Y-91813000D01*
X168790889Y-91834487D01*
X168510966Y-91919401D01*
X168252986Y-92057294D01*
X168026866Y-92242866D01*
X167841294Y-92468986D01*
X167812000Y-92523791D01*
X167782706Y-92468986D01*
X167597134Y-92242866D01*
X167371014Y-92057294D01*
X167113034Y-91919401D01*
X166833111Y-91834487D01*
X166614950Y-91813000D01*
X166469050Y-91813000D01*
X166250889Y-91834487D01*
X165970966Y-91919401D01*
X165712986Y-92057294D01*
X165486866Y-92242866D01*
X165301294Y-92468986D01*
X165272000Y-92523791D01*
X165242706Y-92468986D01*
X165057134Y-92242866D01*
X164831014Y-92057294D01*
X164573034Y-91919401D01*
X164293111Y-91834487D01*
X164074950Y-91813000D01*
X163929050Y-91813000D01*
X163710889Y-91834487D01*
X163430966Y-91919401D01*
X163172986Y-92057294D01*
X162946866Y-92242866D01*
X162761294Y-92468986D01*
X162732000Y-92523791D01*
X162702706Y-92468986D01*
X162517134Y-92242866D01*
X162291014Y-92057294D01*
X162033034Y-91919401D01*
X161753111Y-91834487D01*
X161534950Y-91813000D01*
X161389050Y-91813000D01*
X161170889Y-91834487D01*
X160890966Y-91919401D01*
X160632986Y-92057294D01*
X160406866Y-92242866D01*
X160221294Y-92468986D01*
X160192000Y-92523791D01*
X160162706Y-92468986D01*
X159977134Y-92242866D01*
X159751014Y-92057294D01*
X159493034Y-91919401D01*
X159213111Y-91834487D01*
X158994950Y-91813000D01*
X158849050Y-91813000D01*
X158630889Y-91834487D01*
X158350966Y-91919401D01*
X158092986Y-92057294D01*
X157866866Y-92242866D01*
X157681294Y-92468986D01*
X157652000Y-92523791D01*
X157622706Y-92468986D01*
X157437134Y-92242866D01*
X157211014Y-92057294D01*
X156953034Y-91919401D01*
X156673111Y-91834487D01*
X156454950Y-91813000D01*
X156309050Y-91813000D01*
X156090889Y-91834487D01*
X155810966Y-91919401D01*
X155552986Y-92057294D01*
X155477252Y-92119447D01*
X155135804Y-91778000D01*
X177399083Y-91778000D01*
X176974907Y-92061425D01*
G36*
X172932498Y-107092180D02*
G01*
X172991463Y-107202494D01*
X173070815Y-107299185D01*
X173167506Y-107378537D01*
X173277820Y-107437502D01*
X173397518Y-107473812D01*
X173522000Y-107486072D01*
X173612001Y-107486072D01*
X173612001Y-108223197D01*
X172787199Y-109048000D01*
X172396622Y-109048000D01*
X172466974Y-108962276D01*
X172537546Y-108830247D01*
X172581003Y-108686986D01*
X172592000Y-108575333D01*
X172592000Y-107275595D01*
X172661014Y-107238706D01*
X172887134Y-107053134D01*
X172911607Y-107023313D01*
X172932498Y-107092180D01*
X172932498Y-107092180D01*
G37*
X172932498Y-107092180D02*
X172991463Y-107202494D01*
X173070815Y-107299185D01*
X173167506Y-107378537D01*
X173277820Y-107437502D01*
X173397518Y-107473812D01*
X173522000Y-107486072D01*
X173612001Y-107486072D01*
X173612001Y-108223197D01*
X172787199Y-109048000D01*
X172396622Y-109048000D01*
X172466974Y-108962276D01*
X172537546Y-108830247D01*
X172581003Y-108686986D01*
X172592000Y-108575333D01*
X172592000Y-107275595D01*
X172661014Y-107238706D01*
X172887134Y-107053134D01*
X172911607Y-107023313D01*
X172932498Y-107092180D01*
G36*
X170591294Y-106827014D02*
G01*
X170776866Y-107053134D01*
X171002986Y-107238706D01*
X171072000Y-107275595D01*
X171072000Y-108575332D01*
X171082997Y-108686985D01*
X171126454Y-108830246D01*
X171197026Y-108962275D01*
X171267378Y-109048000D01*
X166046801Y-109048000D01*
X167263003Y-107831799D01*
X167292001Y-107808001D01*
X167386974Y-107692276D01*
X167457546Y-107560247D01*
X167501003Y-107416986D01*
X167512000Y-107305333D01*
X167512000Y-107305324D01*
X167515091Y-107273943D01*
X167581014Y-107238706D01*
X167807134Y-107053134D01*
X167992706Y-106827014D01*
X168022000Y-106772209D01*
X168051294Y-106827014D01*
X168236866Y-107053134D01*
X168462986Y-107238706D01*
X168720966Y-107376599D01*
X169000889Y-107461513D01*
X169219050Y-107483000D01*
X169364950Y-107483000D01*
X169583111Y-107461513D01*
X169863034Y-107376599D01*
X170121014Y-107238706D01*
X170347134Y-107053134D01*
X170532706Y-106827014D01*
X170562000Y-106772209D01*
X170591294Y-106827014D01*
X170591294Y-106827014D01*
G37*
X170591294Y-106827014D02*
X170776866Y-107053134D01*
X171002986Y-107238706D01*
X171072000Y-107275595D01*
X171072000Y-108575332D01*
X171082997Y-108686985D01*
X171126454Y-108830246D01*
X171197026Y-108962275D01*
X171267378Y-109048000D01*
X166046801Y-109048000D01*
X167263003Y-107831799D01*
X167292001Y-107808001D01*
X167386974Y-107692276D01*
X167457546Y-107560247D01*
X167501003Y-107416986D01*
X167512000Y-107305333D01*
X167512000Y-107305324D01*
X167515091Y-107273943D01*
X167581014Y-107238706D01*
X167807134Y-107053134D01*
X167992706Y-106827014D01*
X168022000Y-106772209D01*
X168051294Y-106827014D01*
X168236866Y-107053134D01*
X168462986Y-107238706D01*
X168720966Y-107376599D01*
X169000889Y-107461513D01*
X169219050Y-107483000D01*
X169364950Y-107483000D01*
X169583111Y-107461513D01*
X169863034Y-107376599D01*
X170121014Y-107238706D01*
X170347134Y-107053134D01*
X170532706Y-106827014D01*
X170562000Y-106772209D01*
X170591294Y-106827014D01*
G36*
X137571294Y-106827014D02*
G01*
X137756866Y-107053134D01*
X137982986Y-107238706D01*
X138052001Y-107275595D01*
X138052000Y-108223198D01*
X137227199Y-109048000D01*
X136836622Y-109048000D01*
X136906974Y-108962276D01*
X136977546Y-108830247D01*
X137021003Y-108686986D01*
X137032000Y-108575333D01*
X137032000Y-107275595D01*
X137101014Y-107238706D01*
X137327134Y-107053134D01*
X137512706Y-106827014D01*
X137542000Y-106772209D01*
X137571294Y-106827014D01*
X137571294Y-106827014D01*
G37*
X137571294Y-106827014D02*
X137756866Y-107053134D01*
X137982986Y-107238706D01*
X138052001Y-107275595D01*
X138052000Y-108223198D01*
X137227199Y-109048000D01*
X136836622Y-109048000D01*
X136906974Y-108962276D01*
X136977546Y-108830247D01*
X137021003Y-108686986D01*
X137032000Y-108575333D01*
X137032000Y-107275595D01*
X137101014Y-107238706D01*
X137327134Y-107053134D01*
X137512706Y-106827014D01*
X137542000Y-106772209D01*
X137571294Y-106827014D01*
G36*
X142922000Y-105750678D02*
G01*
X142918324Y-105788000D01*
X142922000Y-105825322D01*
X142922000Y-105825332D01*
X142932997Y-105936985D01*
X142951506Y-105998001D01*
X142976454Y-106080246D01*
X143047026Y-106212276D01*
X143055842Y-106223018D01*
X143141999Y-106328001D01*
X143171003Y-106351804D01*
X145867198Y-109048000D01*
X140396802Y-109048000D01*
X139572000Y-108223199D01*
X139572000Y-107275595D01*
X139641014Y-107238706D01*
X139867134Y-107053134D01*
X139891607Y-107023313D01*
X139912498Y-107092180D01*
X139971463Y-107202494D01*
X140050815Y-107299185D01*
X140147506Y-107378537D01*
X140257820Y-107437502D01*
X140377518Y-107473812D01*
X140502000Y-107486072D01*
X142202000Y-107486072D01*
X142326482Y-107473812D01*
X142446180Y-107437502D01*
X142556494Y-107378537D01*
X142653185Y-107299185D01*
X142732537Y-107202494D01*
X142791502Y-107092180D01*
X142827812Y-106972482D01*
X142840072Y-106848000D01*
X142840072Y-105148000D01*
X142827812Y-105023518D01*
X142791502Y-104903820D01*
X142732537Y-104793506D01*
X142653185Y-104696815D01*
X142556494Y-104617463D01*
X142446180Y-104558498D01*
X142326482Y-104522188D01*
X142202000Y-104509928D01*
X140502000Y-104509928D01*
X140377518Y-104522188D01*
X140257820Y-104558498D01*
X140147506Y-104617463D01*
X140050815Y-104696815D01*
X139971463Y-104793506D01*
X139912498Y-104903820D01*
X139891607Y-104972687D01*
X139867134Y-104942866D01*
X139641014Y-104757294D01*
X139572000Y-104720405D01*
X139572000Y-99962801D01*
X140626804Y-98907998D01*
X141314678Y-98907998D01*
X141352000Y-98911674D01*
X141389322Y-98907998D01*
X141389333Y-98907998D01*
X141500986Y-98897001D01*
X141644247Y-98853544D01*
X141776276Y-98782972D01*
X141892001Y-98687999D01*
X141915804Y-98658995D01*
X142922001Y-97652799D01*
X142922000Y-105750678D01*
X142922000Y-105750678D01*
G37*
X142922000Y-105750678D02*
X142918324Y-105788000D01*
X142922000Y-105825322D01*
X142922000Y-105825332D01*
X142932997Y-105936985D01*
X142951506Y-105998001D01*
X142976454Y-106080246D01*
X143047026Y-106212276D01*
X143055842Y-106223018D01*
X143141999Y-106328001D01*
X143171003Y-106351804D01*
X145867198Y-109048000D01*
X140396802Y-109048000D01*
X139572000Y-108223199D01*
X139572000Y-107275595D01*
X139641014Y-107238706D01*
X139867134Y-107053134D01*
X139891607Y-107023313D01*
X139912498Y-107092180D01*
X139971463Y-107202494D01*
X140050815Y-107299185D01*
X140147506Y-107378537D01*
X140257820Y-107437502D01*
X140377518Y-107473812D01*
X140502000Y-107486072D01*
X142202000Y-107486072D01*
X142326482Y-107473812D01*
X142446180Y-107437502D01*
X142556494Y-107378537D01*
X142653185Y-107299185D01*
X142732537Y-107202494D01*
X142791502Y-107092180D01*
X142827812Y-106972482D01*
X142840072Y-106848000D01*
X142840072Y-105148000D01*
X142827812Y-105023518D01*
X142791502Y-104903820D01*
X142732537Y-104793506D01*
X142653185Y-104696815D01*
X142556494Y-104617463D01*
X142446180Y-104558498D01*
X142326482Y-104522188D01*
X142202000Y-104509928D01*
X140502000Y-104509928D01*
X140377518Y-104522188D01*
X140257820Y-104558498D01*
X140147506Y-104617463D01*
X140050815Y-104696815D01*
X139971463Y-104793506D01*
X139912498Y-104903820D01*
X139891607Y-104972687D01*
X139867134Y-104942866D01*
X139641014Y-104757294D01*
X139572000Y-104720405D01*
X139572000Y-99962801D01*
X140626804Y-98907998D01*
X141314678Y-98907998D01*
X141352000Y-98911674D01*
X141389322Y-98907998D01*
X141389333Y-98907998D01*
X141500986Y-98897001D01*
X141644247Y-98853544D01*
X141776276Y-98782972D01*
X141892001Y-98687999D01*
X141915804Y-98658995D01*
X142922001Y-97652799D01*
X142922000Y-105750678D01*
G36*
X127386866Y-96893134D02*
G01*
X127612986Y-97078706D01*
X127682000Y-97115595D01*
X127682001Y-104872998D01*
X127596866Y-104942866D01*
X127411294Y-105168986D01*
X127382000Y-105223791D01*
X127352706Y-105168986D01*
X127167134Y-104942866D01*
X126941014Y-104757294D01*
X126683034Y-104619401D01*
X126403111Y-104534487D01*
X126184950Y-104513000D01*
X126039050Y-104513000D01*
X125820889Y-104534487D01*
X125540966Y-104619401D01*
X125282986Y-104757294D01*
X125056866Y-104942866D01*
X124871294Y-105168986D01*
X124733401Y-105426966D01*
X124648487Y-105706889D01*
X124619815Y-105998000D01*
X124648487Y-106289111D01*
X124733401Y-106569034D01*
X124871294Y-106827014D01*
X125056866Y-107053134D01*
X125282986Y-107238706D01*
X125540966Y-107376599D01*
X125820889Y-107461513D01*
X126039050Y-107483000D01*
X126184950Y-107483000D01*
X126403111Y-107461513D01*
X126683034Y-107376599D01*
X126941014Y-107238706D01*
X127167134Y-107053134D01*
X127352706Y-106827014D01*
X127382000Y-106772209D01*
X127411294Y-106827014D01*
X127596866Y-107053134D01*
X127822986Y-107238706D01*
X128080966Y-107376599D01*
X128360889Y-107461513D01*
X128579050Y-107483000D01*
X128724950Y-107483000D01*
X128943111Y-107461513D01*
X129223034Y-107376599D01*
X129481014Y-107238706D01*
X129707134Y-107053134D01*
X129892706Y-106827014D01*
X129922000Y-106772209D01*
X129951294Y-106827014D01*
X130136866Y-107053134D01*
X130362986Y-107238706D01*
X130620966Y-107376599D01*
X130900889Y-107461513D01*
X131119050Y-107483000D01*
X131264950Y-107483000D01*
X131483111Y-107461513D01*
X131763034Y-107376599D01*
X132021014Y-107238706D01*
X132247134Y-107053134D01*
X132432706Y-106827014D01*
X132462000Y-106772209D01*
X132491294Y-106827014D01*
X132676866Y-107053134D01*
X132902986Y-107238706D01*
X133160966Y-107376599D01*
X133440889Y-107461513D01*
X133659050Y-107483000D01*
X133804950Y-107483000D01*
X134023111Y-107461513D01*
X134303034Y-107376599D01*
X134561014Y-107238706D01*
X134787134Y-107053134D01*
X134972706Y-106827014D01*
X135002000Y-106772209D01*
X135031294Y-106827014D01*
X135216866Y-107053134D01*
X135442986Y-107238706D01*
X135512001Y-107275595D01*
X135512001Y-108575333D01*
X135522998Y-108686986D01*
X135566455Y-108830247D01*
X135637027Y-108962276D01*
X135707379Y-109048000D01*
X123886802Y-109048000D01*
X123062000Y-108223199D01*
X123062000Y-101232801D01*
X123886802Y-100408000D01*
X124804678Y-100408000D01*
X124842000Y-100411676D01*
X124879322Y-100408000D01*
X124879333Y-100408000D01*
X124990986Y-100397003D01*
X125134247Y-100353546D01*
X125266276Y-100282974D01*
X125382001Y-100188001D01*
X125405804Y-100158997D01*
X126623003Y-98941799D01*
X126652001Y-98918001D01*
X126746974Y-98802276D01*
X126817546Y-98670247D01*
X126861003Y-98526986D01*
X126872000Y-98415333D01*
X126872000Y-98415324D01*
X126875676Y-98378001D01*
X126872000Y-98340678D01*
X126872000Y-97314253D01*
X126876482Y-97313812D01*
X126996180Y-97277502D01*
X127106494Y-97218537D01*
X127203185Y-97139185D01*
X127282537Y-97042494D01*
X127341502Y-96932180D01*
X127362393Y-96863313D01*
X127386866Y-96893134D01*
X127386866Y-96893134D01*
G37*
X127386866Y-96893134D02*
X127612986Y-97078706D01*
X127682000Y-97115595D01*
X127682001Y-104872998D01*
X127596866Y-104942866D01*
X127411294Y-105168986D01*
X127382000Y-105223791D01*
X127352706Y-105168986D01*
X127167134Y-104942866D01*
X126941014Y-104757294D01*
X126683034Y-104619401D01*
X126403111Y-104534487D01*
X126184950Y-104513000D01*
X126039050Y-104513000D01*
X125820889Y-104534487D01*
X125540966Y-104619401D01*
X125282986Y-104757294D01*
X125056866Y-104942866D01*
X124871294Y-105168986D01*
X124733401Y-105426966D01*
X124648487Y-105706889D01*
X124619815Y-105998000D01*
X124648487Y-106289111D01*
X124733401Y-106569034D01*
X124871294Y-106827014D01*
X125056866Y-107053134D01*
X125282986Y-107238706D01*
X125540966Y-107376599D01*
X125820889Y-107461513D01*
X126039050Y-107483000D01*
X126184950Y-107483000D01*
X126403111Y-107461513D01*
X126683034Y-107376599D01*
X126941014Y-107238706D01*
X127167134Y-107053134D01*
X127352706Y-106827014D01*
X127382000Y-106772209D01*
X127411294Y-106827014D01*
X127596866Y-107053134D01*
X127822986Y-107238706D01*
X128080966Y-107376599D01*
X128360889Y-107461513D01*
X128579050Y-107483000D01*
X128724950Y-107483000D01*
X128943111Y-107461513D01*
X129223034Y-107376599D01*
X129481014Y-107238706D01*
X129707134Y-107053134D01*
X129892706Y-106827014D01*
X129922000Y-106772209D01*
X129951294Y-106827014D01*
X130136866Y-107053134D01*
X130362986Y-107238706D01*
X130620966Y-107376599D01*
X130900889Y-107461513D01*
X131119050Y-107483000D01*
X131264950Y-107483000D01*
X131483111Y-107461513D01*
X131763034Y-107376599D01*
X132021014Y-107238706D01*
X132247134Y-107053134D01*
X132432706Y-106827014D01*
X132462000Y-106772209D01*
X132491294Y-106827014D01*
X132676866Y-107053134D01*
X132902986Y-107238706D01*
X133160966Y-107376599D01*
X133440889Y-107461513D01*
X133659050Y-107483000D01*
X133804950Y-107483000D01*
X134023111Y-107461513D01*
X134303034Y-107376599D01*
X134561014Y-107238706D01*
X134787134Y-107053134D01*
X134972706Y-106827014D01*
X135002000Y-106772209D01*
X135031294Y-106827014D01*
X135216866Y-107053134D01*
X135442986Y-107238706D01*
X135512001Y-107275595D01*
X135512001Y-108575333D01*
X135522998Y-108686986D01*
X135566455Y-108830247D01*
X135637027Y-108962276D01*
X135707379Y-109048000D01*
X123886802Y-109048000D01*
X123062000Y-108223199D01*
X123062000Y-101232801D01*
X123886802Y-100408000D01*
X124804678Y-100408000D01*
X124842000Y-100411676D01*
X124879322Y-100408000D01*
X124879333Y-100408000D01*
X124990986Y-100397003D01*
X125134247Y-100353546D01*
X125266276Y-100282974D01*
X125382001Y-100188001D01*
X125405804Y-100158997D01*
X126623003Y-98941799D01*
X126652001Y-98918001D01*
X126746974Y-98802276D01*
X126817546Y-98670247D01*
X126861003Y-98526986D01*
X126872000Y-98415333D01*
X126872000Y-98415324D01*
X126875676Y-98378001D01*
X126872000Y-98340678D01*
X126872000Y-97314253D01*
X126876482Y-97313812D01*
X126996180Y-97277502D01*
X127106494Y-97218537D01*
X127203185Y-97139185D01*
X127282537Y-97042494D01*
X127341502Y-96932180D01*
X127362393Y-96863313D01*
X127386866Y-96893134D01*
G36*
X165511294Y-106827014D02*
G01*
X165696866Y-107053134D01*
X165804078Y-107141121D01*
X165167199Y-107778000D01*
X158426801Y-107778000D01*
X158766004Y-107438797D01*
X158840889Y-107461513D01*
X159059050Y-107483000D01*
X159204950Y-107483000D01*
X159423111Y-107461513D01*
X159703034Y-107376599D01*
X159961014Y-107238706D01*
X160187134Y-107053134D01*
X160372706Y-106827014D01*
X160402000Y-106772209D01*
X160431294Y-106827014D01*
X160616866Y-107053134D01*
X160842986Y-107238706D01*
X161100966Y-107376599D01*
X161380889Y-107461513D01*
X161599050Y-107483000D01*
X161744950Y-107483000D01*
X161963111Y-107461513D01*
X162243034Y-107376599D01*
X162501014Y-107238706D01*
X162727134Y-107053134D01*
X162912706Y-106827014D01*
X162942000Y-106772209D01*
X162971294Y-106827014D01*
X163156866Y-107053134D01*
X163382986Y-107238706D01*
X163640966Y-107376599D01*
X163920889Y-107461513D01*
X164139050Y-107483000D01*
X164284950Y-107483000D01*
X164503111Y-107461513D01*
X164783034Y-107376599D01*
X165041014Y-107238706D01*
X165267134Y-107053134D01*
X165452706Y-106827014D01*
X165482000Y-106772209D01*
X165511294Y-106827014D01*
X165511294Y-106827014D01*
G37*
X165511294Y-106827014D02*
X165696866Y-107053134D01*
X165804078Y-107141121D01*
X165167199Y-107778000D01*
X158426801Y-107778000D01*
X158766004Y-107438797D01*
X158840889Y-107461513D01*
X159059050Y-107483000D01*
X159204950Y-107483000D01*
X159423111Y-107461513D01*
X159703034Y-107376599D01*
X159961014Y-107238706D01*
X160187134Y-107053134D01*
X160372706Y-106827014D01*
X160402000Y-106772209D01*
X160431294Y-106827014D01*
X160616866Y-107053134D01*
X160842986Y-107238706D01*
X161100966Y-107376599D01*
X161380889Y-107461513D01*
X161599050Y-107483000D01*
X161744950Y-107483000D01*
X161963111Y-107461513D01*
X162243034Y-107376599D01*
X162501014Y-107238706D01*
X162727134Y-107053134D01*
X162912706Y-106827014D01*
X162942000Y-106772209D01*
X162971294Y-106827014D01*
X163156866Y-107053134D01*
X163382986Y-107238706D01*
X163640966Y-107376599D01*
X163920889Y-107461513D01*
X164139050Y-107483000D01*
X164284950Y-107483000D01*
X164503111Y-107461513D01*
X164783034Y-107376599D01*
X165041014Y-107238706D01*
X165267134Y-107053134D01*
X165452706Y-106827014D01*
X165482000Y-106772209D01*
X165511294Y-106827014D01*
G36*
X144981294Y-96667014D02*
G01*
X145166866Y-96893134D01*
X145392986Y-97078706D01*
X145650966Y-97216599D01*
X145930889Y-97301513D01*
X146149050Y-97323000D01*
X146294950Y-97323000D01*
X146513111Y-97301513D01*
X146793034Y-97216599D01*
X146942001Y-97136975D01*
X146942000Y-103420677D01*
X146938324Y-103458000D01*
X146942000Y-103495322D01*
X146942000Y-103495332D01*
X146952997Y-103606985D01*
X146996454Y-103750246D01*
X147067026Y-103882276D01*
X147104104Y-103927455D01*
X147161999Y-103998001D01*
X147191003Y-104021804D01*
X149678205Y-106509008D01*
X149701999Y-106538001D01*
X149730992Y-106561795D01*
X149730996Y-106561799D01*
X149801685Y-106619811D01*
X149817724Y-106632974D01*
X149949753Y-106703546D01*
X150093014Y-106747003D01*
X150204667Y-106758000D01*
X150204676Y-106758000D01*
X150241999Y-106761676D01*
X150279322Y-106758000D01*
X152774405Y-106758000D01*
X152811294Y-106827014D01*
X152996866Y-107053134D01*
X153222986Y-107238706D01*
X153480966Y-107376599D01*
X153760889Y-107461513D01*
X153979050Y-107483000D01*
X154124950Y-107483000D01*
X154343111Y-107461513D01*
X154623034Y-107376599D01*
X154881014Y-107238706D01*
X154956749Y-107176552D01*
X155558196Y-107778000D01*
X146746802Y-107778000D01*
X144442000Y-105473199D01*
X144442000Y-97115595D01*
X144511014Y-97078706D01*
X144737134Y-96893134D01*
X144922706Y-96667014D01*
X144952000Y-96612209D01*
X144981294Y-96667014D01*
X144981294Y-96667014D01*
G37*
X144981294Y-96667014D02*
X145166866Y-96893134D01*
X145392986Y-97078706D01*
X145650966Y-97216599D01*
X145930889Y-97301513D01*
X146149050Y-97323000D01*
X146294950Y-97323000D01*
X146513111Y-97301513D01*
X146793034Y-97216599D01*
X146942001Y-97136975D01*
X146942000Y-103420677D01*
X146938324Y-103458000D01*
X146942000Y-103495322D01*
X146942000Y-103495332D01*
X146952997Y-103606985D01*
X146996454Y-103750246D01*
X147067026Y-103882276D01*
X147104104Y-103927455D01*
X147161999Y-103998001D01*
X147191003Y-104021804D01*
X149678205Y-106509008D01*
X149701999Y-106538001D01*
X149730992Y-106561795D01*
X149730996Y-106561799D01*
X149801685Y-106619811D01*
X149817724Y-106632974D01*
X149949753Y-106703546D01*
X150093014Y-106747003D01*
X150204667Y-106758000D01*
X150204676Y-106758000D01*
X150241999Y-106761676D01*
X150279322Y-106758000D01*
X152774405Y-106758000D01*
X152811294Y-106827014D01*
X152996866Y-107053134D01*
X153222986Y-107238706D01*
X153480966Y-107376599D01*
X153760889Y-107461513D01*
X153979050Y-107483000D01*
X154124950Y-107483000D01*
X154343111Y-107461513D01*
X154623034Y-107376599D01*
X154881014Y-107238706D01*
X154956749Y-107176552D01*
X155558196Y-107778000D01*
X146746802Y-107778000D01*
X144442000Y-105473199D01*
X144442000Y-97115595D01*
X144511014Y-97078706D01*
X144737134Y-96893134D01*
X144922706Y-96667014D01*
X144952000Y-96612209D01*
X144981294Y-96667014D01*
G36*
X149678200Y-102699002D02*
G01*
X149701999Y-102728001D01*
X149730997Y-102751799D01*
X149817723Y-102822974D01*
X149949751Y-102893545D01*
X149949753Y-102893546D01*
X150093014Y-102937003D01*
X150204667Y-102948000D01*
X150204676Y-102948000D01*
X150241999Y-102951676D01*
X150279322Y-102948000D01*
X152467199Y-102948000D01*
X154032198Y-104513000D01*
X153979050Y-104513000D01*
X153760889Y-104534487D01*
X153480966Y-104619401D01*
X153222986Y-104757294D01*
X152996866Y-104942866D01*
X152811294Y-105168986D01*
X152774405Y-105238000D01*
X150556803Y-105238000D01*
X148462000Y-103143199D01*
X148462000Y-101482801D01*
X149678200Y-102699002D01*
X149678200Y-102699002D01*
G37*
X149678200Y-102699002D02*
X149701999Y-102728001D01*
X149730997Y-102751799D01*
X149817723Y-102822974D01*
X149949751Y-102893545D01*
X149949753Y-102893546D01*
X150093014Y-102937003D01*
X150204667Y-102948000D01*
X150204676Y-102948000D01*
X150241999Y-102951676D01*
X150279322Y-102948000D01*
X152467199Y-102948000D01*
X154032198Y-104513000D01*
X153979050Y-104513000D01*
X153760889Y-104534487D01*
X153480966Y-104619401D01*
X153222986Y-104757294D01*
X152996866Y-104942866D01*
X152811294Y-105168986D01*
X152774405Y-105238000D01*
X150556803Y-105238000D01*
X148462000Y-103143199D01*
X148462000Y-101482801D01*
X149678200Y-102699002D01*
G36*
X152601294Y-96667014D02*
G01*
X152786866Y-96893134D01*
X153012986Y-97078706D01*
X153270966Y-97216599D01*
X153550889Y-97301513D01*
X153769050Y-97323000D01*
X153914950Y-97323000D01*
X154133111Y-97301513D01*
X154207995Y-97278797D01*
X154453201Y-97524003D01*
X154477000Y-97553002D01*
X154592725Y-97647975D01*
X154724754Y-97718547D01*
X154868015Y-97762004D01*
X154979668Y-97773001D01*
X154979677Y-97773001D01*
X155017000Y-97776677D01*
X155054323Y-97773001D01*
X157452200Y-97773001D01*
X163452000Y-103772802D01*
X163452000Y-104720405D01*
X163382986Y-104757294D01*
X163156866Y-104942866D01*
X162971294Y-105168986D01*
X162942000Y-105223791D01*
X162912706Y-105168986D01*
X162727134Y-104942866D01*
X162501014Y-104757294D01*
X162432000Y-104720405D01*
X162432000Y-103495322D01*
X162435676Y-103457999D01*
X162432000Y-103420676D01*
X162432000Y-103420667D01*
X162421003Y-103309014D01*
X162377546Y-103165753D01*
X162306974Y-103033724D01*
X162212001Y-102917999D01*
X162183003Y-102894201D01*
X160965804Y-101677003D01*
X160942001Y-101647999D01*
X160826276Y-101553026D01*
X160694247Y-101482454D01*
X160550986Y-101438997D01*
X160439333Y-101428000D01*
X160439322Y-101428000D01*
X160402000Y-101424324D01*
X160364678Y-101428000D01*
X158176803Y-101428000D01*
X155885804Y-99137003D01*
X155862001Y-99107999D01*
X155746276Y-99013026D01*
X155614247Y-98942454D01*
X155470986Y-98898997D01*
X155359333Y-98888000D01*
X155359322Y-98888000D01*
X155322000Y-98884324D01*
X155284678Y-98888000D01*
X153096802Y-98888000D01*
X152272000Y-98063199D01*
X152272000Y-97287404D01*
X152275676Y-97250081D01*
X152272000Y-97212758D01*
X152272000Y-97212748D01*
X152261003Y-97101095D01*
X152229655Y-96997753D01*
X152357134Y-96893134D01*
X152542706Y-96667014D01*
X152572000Y-96612209D01*
X152601294Y-96667014D01*
X152601294Y-96667014D01*
G37*
X152601294Y-96667014D02*
X152786866Y-96893134D01*
X153012986Y-97078706D01*
X153270966Y-97216599D01*
X153550889Y-97301513D01*
X153769050Y-97323000D01*
X153914950Y-97323000D01*
X154133111Y-97301513D01*
X154207995Y-97278797D01*
X154453201Y-97524003D01*
X154477000Y-97553002D01*
X154592725Y-97647975D01*
X154724754Y-97718547D01*
X154868015Y-97762004D01*
X154979668Y-97773001D01*
X154979677Y-97773001D01*
X155017000Y-97776677D01*
X155054323Y-97773001D01*
X157452200Y-97773001D01*
X163452000Y-103772802D01*
X163452000Y-104720405D01*
X163382986Y-104757294D01*
X163156866Y-104942866D01*
X162971294Y-105168986D01*
X162942000Y-105223791D01*
X162912706Y-105168986D01*
X162727134Y-104942866D01*
X162501014Y-104757294D01*
X162432000Y-104720405D01*
X162432000Y-103495322D01*
X162435676Y-103457999D01*
X162432000Y-103420676D01*
X162432000Y-103420667D01*
X162421003Y-103309014D01*
X162377546Y-103165753D01*
X162306974Y-103033724D01*
X162212001Y-102917999D01*
X162183003Y-102894201D01*
X160965804Y-101677003D01*
X160942001Y-101647999D01*
X160826276Y-101553026D01*
X160694247Y-101482454D01*
X160550986Y-101438997D01*
X160439333Y-101428000D01*
X160439322Y-101428000D01*
X160402000Y-101424324D01*
X160364678Y-101428000D01*
X158176803Y-101428000D01*
X155885804Y-99137003D01*
X155862001Y-99107999D01*
X155746276Y-99013026D01*
X155614247Y-98942454D01*
X155470986Y-98898997D01*
X155359333Y-98888000D01*
X155359322Y-98888000D01*
X155322000Y-98884324D01*
X155284678Y-98888000D01*
X153096802Y-98888000D01*
X152272000Y-98063199D01*
X152272000Y-97287404D01*
X152275676Y-97250081D01*
X152272000Y-97212758D01*
X152272000Y-97212748D01*
X152261003Y-97101095D01*
X152229655Y-96997753D01*
X152357134Y-96893134D01*
X152542706Y-96667014D01*
X152572000Y-96612209D01*
X152601294Y-96667014D01*
G36*
X172921294Y-96667014D02*
G01*
X173106866Y-96893134D01*
X173329419Y-97075779D01*
X171321003Y-99084196D01*
X171291999Y-99107999D01*
X171236871Y-99175174D01*
X171197026Y-99223724D01*
X171187924Y-99240753D01*
X171126454Y-99355754D01*
X171082997Y-99499015D01*
X171072000Y-99610668D01*
X171072000Y-99610678D01*
X171068324Y-99648000D01*
X171072000Y-99685323D01*
X171072001Y-104720405D01*
X171002986Y-104757294D01*
X170776866Y-104942866D01*
X170591294Y-105168986D01*
X170562000Y-105223791D01*
X170532706Y-105168986D01*
X170347134Y-104942866D01*
X170121014Y-104757294D01*
X169863034Y-104619401D01*
X169583111Y-104534487D01*
X169364950Y-104513000D01*
X169219050Y-104513000D01*
X169000889Y-104534487D01*
X168720966Y-104619401D01*
X168462986Y-104757294D01*
X168236866Y-104942866D01*
X168051294Y-105168986D01*
X168022000Y-105223791D01*
X167992706Y-105168986D01*
X167807134Y-104942866D01*
X167581014Y-104757294D01*
X167323034Y-104619401D01*
X167043111Y-104534487D01*
X166824950Y-104513000D01*
X166679050Y-104513000D01*
X166460889Y-104534487D01*
X166180966Y-104619401D01*
X165922986Y-104757294D01*
X165696866Y-104942866D01*
X165511294Y-105168986D01*
X165482000Y-105223791D01*
X165452706Y-105168986D01*
X165267134Y-104942866D01*
X165041014Y-104757294D01*
X164972000Y-104720405D01*
X164972000Y-103495322D01*
X164975676Y-103458000D01*
X164972000Y-103420677D01*
X164972000Y-103420667D01*
X164961003Y-103309014D01*
X164917546Y-103165753D01*
X164846975Y-103033725D01*
X164846974Y-103033723D01*
X164775799Y-102946997D01*
X164775798Y-102946996D01*
X164752001Y-102917999D01*
X164723003Y-102894201D01*
X159137738Y-97308937D01*
X159213111Y-97301513D01*
X159493034Y-97216599D01*
X159751014Y-97078706D01*
X159977134Y-96893134D01*
X160162706Y-96667014D01*
X160192000Y-96612209D01*
X160221294Y-96667014D01*
X160406866Y-96893134D01*
X160632986Y-97078706D01*
X160890966Y-97216599D01*
X161170889Y-97301513D01*
X161389050Y-97323000D01*
X161534950Y-97323000D01*
X161753111Y-97301513D01*
X162033034Y-97216599D01*
X162291014Y-97078706D01*
X162517134Y-96893134D01*
X162702706Y-96667014D01*
X162732000Y-96612209D01*
X162761294Y-96667014D01*
X162946866Y-96893134D01*
X163172986Y-97078706D01*
X163430966Y-97216599D01*
X163710889Y-97301513D01*
X163929050Y-97323000D01*
X164074950Y-97323000D01*
X164293111Y-97301513D01*
X164573034Y-97216599D01*
X164831014Y-97078706D01*
X165057134Y-96893134D01*
X165242706Y-96667014D01*
X165272000Y-96612209D01*
X165301294Y-96667014D01*
X165486866Y-96893134D01*
X165712986Y-97078706D01*
X165970966Y-97216599D01*
X166250889Y-97301513D01*
X166469050Y-97323000D01*
X166614950Y-97323000D01*
X166833111Y-97301513D01*
X167113034Y-97216599D01*
X167371014Y-97078706D01*
X167597134Y-96893134D01*
X167782706Y-96667014D01*
X167812000Y-96612209D01*
X167841294Y-96667014D01*
X168026866Y-96893134D01*
X168252986Y-97078706D01*
X168510966Y-97216599D01*
X168790889Y-97301513D01*
X169009050Y-97323000D01*
X169154950Y-97323000D01*
X169373111Y-97301513D01*
X169653034Y-97216599D01*
X169911014Y-97078706D01*
X170137134Y-96893134D01*
X170322706Y-96667014D01*
X170352000Y-96612209D01*
X170381294Y-96667014D01*
X170566866Y-96893134D01*
X170792986Y-97078706D01*
X171050966Y-97216599D01*
X171330889Y-97301513D01*
X171549050Y-97323000D01*
X171694950Y-97323000D01*
X171913111Y-97301513D01*
X172193034Y-97216599D01*
X172451014Y-97078706D01*
X172677134Y-96893134D01*
X172862706Y-96667014D01*
X172892000Y-96612209D01*
X172921294Y-96667014D01*
X172921294Y-96667014D01*
G37*
X172921294Y-96667014D02*
X173106866Y-96893134D01*
X173329419Y-97075779D01*
X171321003Y-99084196D01*
X171291999Y-99107999D01*
X171236871Y-99175174D01*
X171197026Y-99223724D01*
X171187924Y-99240753D01*
X171126454Y-99355754D01*
X171082997Y-99499015D01*
X171072000Y-99610668D01*
X171072000Y-99610678D01*
X171068324Y-99648000D01*
X171072000Y-99685323D01*
X171072001Y-104720405D01*
X171002986Y-104757294D01*
X170776866Y-104942866D01*
X170591294Y-105168986D01*
X170562000Y-105223791D01*
X170532706Y-105168986D01*
X170347134Y-104942866D01*
X170121014Y-104757294D01*
X169863034Y-104619401D01*
X169583111Y-104534487D01*
X169364950Y-104513000D01*
X169219050Y-104513000D01*
X169000889Y-104534487D01*
X168720966Y-104619401D01*
X168462986Y-104757294D01*
X168236866Y-104942866D01*
X168051294Y-105168986D01*
X168022000Y-105223791D01*
X167992706Y-105168986D01*
X167807134Y-104942866D01*
X167581014Y-104757294D01*
X167323034Y-104619401D01*
X167043111Y-104534487D01*
X166824950Y-104513000D01*
X166679050Y-104513000D01*
X166460889Y-104534487D01*
X166180966Y-104619401D01*
X165922986Y-104757294D01*
X165696866Y-104942866D01*
X165511294Y-105168986D01*
X165482000Y-105223791D01*
X165452706Y-105168986D01*
X165267134Y-104942866D01*
X165041014Y-104757294D01*
X164972000Y-104720405D01*
X164972000Y-103495322D01*
X164975676Y-103458000D01*
X164972000Y-103420677D01*
X164972000Y-103420667D01*
X164961003Y-103309014D01*
X164917546Y-103165753D01*
X164846975Y-103033725D01*
X164846974Y-103033723D01*
X164775799Y-102946997D01*
X164775798Y-102946996D01*
X164752001Y-102917999D01*
X164723003Y-102894201D01*
X159137738Y-97308937D01*
X159213111Y-97301513D01*
X159493034Y-97216599D01*
X159751014Y-97078706D01*
X159977134Y-96893134D01*
X160162706Y-96667014D01*
X160192000Y-96612209D01*
X160221294Y-96667014D01*
X160406866Y-96893134D01*
X160632986Y-97078706D01*
X160890966Y-97216599D01*
X161170889Y-97301513D01*
X161389050Y-97323000D01*
X161534950Y-97323000D01*
X161753111Y-97301513D01*
X162033034Y-97216599D01*
X162291014Y-97078706D01*
X162517134Y-96893134D01*
X162702706Y-96667014D01*
X162732000Y-96612209D01*
X162761294Y-96667014D01*
X162946866Y-96893134D01*
X163172986Y-97078706D01*
X163430966Y-97216599D01*
X163710889Y-97301513D01*
X163929050Y-97323000D01*
X164074950Y-97323000D01*
X164293111Y-97301513D01*
X164573034Y-97216599D01*
X164831014Y-97078706D01*
X165057134Y-96893134D01*
X165242706Y-96667014D01*
X165272000Y-96612209D01*
X165301294Y-96667014D01*
X165486866Y-96893134D01*
X165712986Y-97078706D01*
X165970966Y-97216599D01*
X166250889Y-97301513D01*
X166469050Y-97323000D01*
X166614950Y-97323000D01*
X166833111Y-97301513D01*
X167113034Y-97216599D01*
X167371014Y-97078706D01*
X167597134Y-96893134D01*
X167782706Y-96667014D01*
X167812000Y-96612209D01*
X167841294Y-96667014D01*
X168026866Y-96893134D01*
X168252986Y-97078706D01*
X168510966Y-97216599D01*
X168790889Y-97301513D01*
X169009050Y-97323000D01*
X169154950Y-97323000D01*
X169373111Y-97301513D01*
X169653034Y-97216599D01*
X169911014Y-97078706D01*
X170137134Y-96893134D01*
X170322706Y-96667014D01*
X170352000Y-96612209D01*
X170381294Y-96667014D01*
X170566866Y-96893134D01*
X170792986Y-97078706D01*
X171050966Y-97216599D01*
X171330889Y-97301513D01*
X171549050Y-97323000D01*
X171694950Y-97323000D01*
X171913111Y-97301513D01*
X172193034Y-97216599D01*
X172451014Y-97078706D01*
X172677134Y-96893134D01*
X172862706Y-96667014D01*
X172892000Y-96612209D01*
X172921294Y-96667014D01*
G36*
X134821294Y-96667014D02*
G01*
X135006866Y-96893134D01*
X135232986Y-97078706D01*
X135490966Y-97216599D01*
X135512001Y-97222980D01*
X135512000Y-104720405D01*
X135442986Y-104757294D01*
X135216866Y-104942866D01*
X135031294Y-105168986D01*
X135002000Y-105223791D01*
X134972706Y-105168986D01*
X134787134Y-104942866D01*
X134561014Y-104757294D01*
X134492000Y-104720405D01*
X134492000Y-102225322D01*
X134495676Y-102187999D01*
X134492000Y-102150676D01*
X134492000Y-102150667D01*
X134481003Y-102039014D01*
X134437546Y-101895753D01*
X134366974Y-101763724D01*
X134353811Y-101747685D01*
X134295799Y-101676996D01*
X134295795Y-101676992D01*
X134272001Y-101647999D01*
X134243009Y-101624206D01*
X131952000Y-99333199D01*
X131952000Y-97287404D01*
X131955676Y-97250081D01*
X131952000Y-97212758D01*
X131952000Y-97212748D01*
X131941003Y-97101095D01*
X131909655Y-96997753D01*
X132037134Y-96893134D01*
X132222706Y-96667014D01*
X132252000Y-96612209D01*
X132281294Y-96667014D01*
X132466866Y-96893134D01*
X132692986Y-97078706D01*
X132950966Y-97216599D01*
X133230889Y-97301513D01*
X133449050Y-97323000D01*
X133594950Y-97323000D01*
X133813111Y-97301513D01*
X134093034Y-97216599D01*
X134351014Y-97078706D01*
X134577134Y-96893134D01*
X134762706Y-96667014D01*
X134792000Y-96612209D01*
X134821294Y-96667014D01*
X134821294Y-96667014D01*
G37*
X134821294Y-96667014D02*
X135006866Y-96893134D01*
X135232986Y-97078706D01*
X135490966Y-97216599D01*
X135512001Y-97222980D01*
X135512000Y-104720405D01*
X135442986Y-104757294D01*
X135216866Y-104942866D01*
X135031294Y-105168986D01*
X135002000Y-105223791D01*
X134972706Y-105168986D01*
X134787134Y-104942866D01*
X134561014Y-104757294D01*
X134492000Y-104720405D01*
X134492000Y-102225322D01*
X134495676Y-102187999D01*
X134492000Y-102150676D01*
X134492000Y-102150667D01*
X134481003Y-102039014D01*
X134437546Y-101895753D01*
X134366974Y-101763724D01*
X134353811Y-101747685D01*
X134295799Y-101676996D01*
X134295795Y-101676992D01*
X134272001Y-101647999D01*
X134243009Y-101624206D01*
X131952000Y-99333199D01*
X131952000Y-97287404D01*
X131955676Y-97250081D01*
X131952000Y-97212758D01*
X131952000Y-97212748D01*
X131941003Y-97101095D01*
X131909655Y-96997753D01*
X132037134Y-96893134D01*
X132222706Y-96667014D01*
X132252000Y-96612209D01*
X132281294Y-96667014D01*
X132466866Y-96893134D01*
X132692986Y-97078706D01*
X132950966Y-97216599D01*
X133230889Y-97301513D01*
X133449050Y-97323000D01*
X133594950Y-97323000D01*
X133813111Y-97301513D01*
X134093034Y-97216599D01*
X134351014Y-97078706D01*
X134577134Y-96893134D01*
X134762706Y-96667014D01*
X134792000Y-96612209D01*
X134821294Y-96667014D01*
G36*
X129741294Y-96667014D02*
G01*
X129926866Y-96893134D01*
X130152986Y-97078706D01*
X130225971Y-97117717D01*
X130232998Y-97189067D01*
X130243154Y-97222548D01*
X130276454Y-97332327D01*
X130347026Y-97464357D01*
X130411015Y-97542327D01*
X130432000Y-97567897D01*
X130432001Y-99610667D01*
X130428324Y-99648000D01*
X130432001Y-99685333D01*
X130442998Y-99796986D01*
X130456180Y-99840442D01*
X130486454Y-99940246D01*
X130557026Y-100072276D01*
X130616054Y-100144201D01*
X130652000Y-100188001D01*
X130680998Y-100211799D01*
X132972000Y-102502803D01*
X132972001Y-104720405D01*
X132902986Y-104757294D01*
X132676866Y-104942866D01*
X132491294Y-105168986D01*
X132462000Y-105223791D01*
X132432706Y-105168986D01*
X132247134Y-104942866D01*
X132021014Y-104757294D01*
X131763034Y-104619401D01*
X131483111Y-104534487D01*
X131264950Y-104513000D01*
X131119050Y-104513000D01*
X130900889Y-104534487D01*
X130620966Y-104619401D01*
X130362986Y-104757294D01*
X130136866Y-104942866D01*
X129951294Y-105168986D01*
X129922000Y-105223791D01*
X129892706Y-105168986D01*
X129707134Y-104942866D01*
X129481014Y-104757294D01*
X129223034Y-104619401D01*
X129202000Y-104613020D01*
X129202000Y-97115595D01*
X129271014Y-97078706D01*
X129497134Y-96893134D01*
X129682706Y-96667014D01*
X129712000Y-96612209D01*
X129741294Y-96667014D01*
X129741294Y-96667014D01*
G37*
X129741294Y-96667014D02*
X129926866Y-96893134D01*
X130152986Y-97078706D01*
X130225971Y-97117717D01*
X130232998Y-97189067D01*
X130243154Y-97222548D01*
X130276454Y-97332327D01*
X130347026Y-97464357D01*
X130411015Y-97542327D01*
X130432000Y-97567897D01*
X130432001Y-99610667D01*
X130428324Y-99648000D01*
X130432001Y-99685333D01*
X130442998Y-99796986D01*
X130456180Y-99840442D01*
X130486454Y-99940246D01*
X130557026Y-100072276D01*
X130616054Y-100144201D01*
X130652000Y-100188001D01*
X130680998Y-100211799D01*
X132972000Y-102502803D01*
X132972001Y-104720405D01*
X132902986Y-104757294D01*
X132676866Y-104942866D01*
X132491294Y-105168986D01*
X132462000Y-105223791D01*
X132432706Y-105168986D01*
X132247134Y-104942866D01*
X132021014Y-104757294D01*
X131763034Y-104619401D01*
X131483111Y-104534487D01*
X131264950Y-104513000D01*
X131119050Y-104513000D01*
X130900889Y-104534487D01*
X130620966Y-104619401D01*
X130362986Y-104757294D01*
X130136866Y-104942866D01*
X129951294Y-105168986D01*
X129922000Y-105223791D01*
X129892706Y-105168986D01*
X129707134Y-104942866D01*
X129481014Y-104757294D01*
X129223034Y-104619401D01*
X129202000Y-104613020D01*
X129202000Y-97115595D01*
X129271014Y-97078706D01*
X129497134Y-96893134D01*
X129682706Y-96667014D01*
X129712000Y-96612209D01*
X129741294Y-96667014D01*
G36*
X157298205Y-102699008D02*
G01*
X157321999Y-102728001D01*
X157350992Y-102751795D01*
X157350996Y-102751799D01*
X157421685Y-102809811D01*
X157437724Y-102822974D01*
X157569753Y-102893546D01*
X157713014Y-102937003D01*
X157824667Y-102948000D01*
X157824676Y-102948000D01*
X157861999Y-102951676D01*
X157899322Y-102948000D01*
X160087199Y-102948000D01*
X160912000Y-103772802D01*
X160912000Y-104720405D01*
X160842986Y-104757294D01*
X160616866Y-104942866D01*
X160431294Y-105168986D01*
X160402000Y-105223791D01*
X160372706Y-105168986D01*
X160187134Y-104942866D01*
X159961014Y-104757294D01*
X159703034Y-104619401D01*
X159423111Y-104534487D01*
X159204950Y-104513000D01*
X159059050Y-104513000D01*
X158840889Y-104534487D01*
X158560966Y-104619401D01*
X158302986Y-104757294D01*
X158076866Y-104942866D01*
X157891294Y-105168986D01*
X157862000Y-105223791D01*
X157832706Y-105168986D01*
X157647134Y-104942866D01*
X157421014Y-104757294D01*
X157352000Y-104720405D01*
X157352000Y-103495322D01*
X157355676Y-103457999D01*
X157352000Y-103420676D01*
X157352000Y-103420667D01*
X157341003Y-103309014D01*
X157297546Y-103165753D01*
X157226974Y-103033724D01*
X157213811Y-103017685D01*
X157155799Y-102946996D01*
X157155795Y-102946992D01*
X157132001Y-102917999D01*
X157103009Y-102894206D01*
X154616801Y-100408000D01*
X155007199Y-100408000D01*
X157298205Y-102699008D01*
X157298205Y-102699008D01*
G37*
X157298205Y-102699008D02*
X157321999Y-102728001D01*
X157350992Y-102751795D01*
X157350996Y-102751799D01*
X157421685Y-102809811D01*
X157437724Y-102822974D01*
X157569753Y-102893546D01*
X157713014Y-102937003D01*
X157824667Y-102948000D01*
X157824676Y-102948000D01*
X157861999Y-102951676D01*
X157899322Y-102948000D01*
X160087199Y-102948000D01*
X160912000Y-103772802D01*
X160912000Y-104720405D01*
X160842986Y-104757294D01*
X160616866Y-104942866D01*
X160431294Y-105168986D01*
X160402000Y-105223791D01*
X160372706Y-105168986D01*
X160187134Y-104942866D01*
X159961014Y-104757294D01*
X159703034Y-104619401D01*
X159423111Y-104534487D01*
X159204950Y-104513000D01*
X159059050Y-104513000D01*
X158840889Y-104534487D01*
X158560966Y-104619401D01*
X158302986Y-104757294D01*
X158076866Y-104942866D01*
X157891294Y-105168986D01*
X157862000Y-105223791D01*
X157832706Y-105168986D01*
X157647134Y-104942866D01*
X157421014Y-104757294D01*
X157352000Y-104720405D01*
X157352000Y-103495322D01*
X157355676Y-103457999D01*
X157352000Y-103420676D01*
X157352000Y-103420667D01*
X157341003Y-103309014D01*
X157297546Y-103165753D01*
X157226974Y-103033724D01*
X157213811Y-103017685D01*
X157155799Y-102946996D01*
X157155795Y-102946992D01*
X157132001Y-102917999D01*
X157103009Y-102894206D01*
X154616801Y-100408000D01*
X155007199Y-100408000D01*
X157298205Y-102699008D01*
G36*
X139901294Y-96667014D02*
G01*
X140086866Y-96893134D01*
X140312986Y-97078706D01*
X140570966Y-97216599D01*
X140850889Y-97301513D01*
X141069050Y-97323000D01*
X141102197Y-97323000D01*
X141037199Y-97387998D01*
X140349324Y-97387998D01*
X140312001Y-97384322D01*
X140274678Y-97387998D01*
X140274669Y-97387998D01*
X140163016Y-97398995D01*
X140019755Y-97442452D01*
X139887726Y-97513024D01*
X139772001Y-97607997D01*
X139748203Y-97636995D01*
X138301003Y-99084196D01*
X138271999Y-99107999D01*
X138216871Y-99175174D01*
X138177026Y-99223724D01*
X138167924Y-99240753D01*
X138106454Y-99355754D01*
X138062997Y-99499015D01*
X138052000Y-99610668D01*
X138052000Y-99610678D01*
X138048324Y-99648000D01*
X138052000Y-99685323D01*
X138052001Y-104690658D01*
X138052000Y-104690668D01*
X138052000Y-104720405D01*
X137982986Y-104757294D01*
X137756866Y-104942866D01*
X137571294Y-105168986D01*
X137542000Y-105223791D01*
X137512706Y-105168986D01*
X137327134Y-104942866D01*
X137101014Y-104757294D01*
X137032000Y-104720405D01*
X137032000Y-96963002D01*
X137117134Y-96893134D01*
X137302706Y-96667014D01*
X137332000Y-96612209D01*
X137361294Y-96667014D01*
X137546866Y-96893134D01*
X137772986Y-97078706D01*
X138030966Y-97216599D01*
X138310889Y-97301513D01*
X138529050Y-97323000D01*
X138674950Y-97323000D01*
X138893111Y-97301513D01*
X139173034Y-97216599D01*
X139431014Y-97078706D01*
X139657134Y-96893134D01*
X139842706Y-96667014D01*
X139872000Y-96612209D01*
X139901294Y-96667014D01*
X139901294Y-96667014D01*
G37*
X139901294Y-96667014D02*
X140086866Y-96893134D01*
X140312986Y-97078706D01*
X140570966Y-97216599D01*
X140850889Y-97301513D01*
X141069050Y-97323000D01*
X141102197Y-97323000D01*
X141037199Y-97387998D01*
X140349324Y-97387998D01*
X140312001Y-97384322D01*
X140274678Y-97387998D01*
X140274669Y-97387998D01*
X140163016Y-97398995D01*
X140019755Y-97442452D01*
X139887726Y-97513024D01*
X139772001Y-97607997D01*
X139748203Y-97636995D01*
X138301003Y-99084196D01*
X138271999Y-99107999D01*
X138216871Y-99175174D01*
X138177026Y-99223724D01*
X138167924Y-99240753D01*
X138106454Y-99355754D01*
X138062997Y-99499015D01*
X138052000Y-99610668D01*
X138052000Y-99610678D01*
X138048324Y-99648000D01*
X138052000Y-99685323D01*
X138052001Y-104690658D01*
X138052000Y-104690668D01*
X138052000Y-104720405D01*
X137982986Y-104757294D01*
X137756866Y-104942866D01*
X137571294Y-105168986D01*
X137542000Y-105223791D01*
X137512706Y-105168986D01*
X137327134Y-104942866D01*
X137101014Y-104757294D01*
X137032000Y-104720405D01*
X137032000Y-96963002D01*
X137117134Y-96893134D01*
X137302706Y-96667014D01*
X137332000Y-96612209D01*
X137361294Y-96667014D01*
X137546866Y-96893134D01*
X137772986Y-97078706D01*
X138030966Y-97216599D01*
X138310889Y-97301513D01*
X138529050Y-97323000D01*
X138674950Y-97323000D01*
X138893111Y-97301513D01*
X139173034Y-97216599D01*
X139431014Y-97078706D01*
X139657134Y-96893134D01*
X139842706Y-96667014D01*
X139872000Y-96612209D01*
X139901294Y-96667014D01*
G36*
X155832000Y-103772803D02*
G01*
X155832000Y-104172201D01*
X155790800Y-104121998D01*
X155767002Y-104093000D01*
X155738004Y-104069202D01*
X153346801Y-101678000D01*
X153737199Y-101678000D01*
X155832000Y-103772803D01*
X155832000Y-103772803D01*
G37*
X155832000Y-103772803D02*
X155832000Y-104172201D01*
X155790800Y-104121998D01*
X155767002Y-104093000D01*
X155738004Y-104069202D01*
X153346801Y-101678000D01*
X153737199Y-101678000D01*
X155832000Y-103772803D01*
G36*
X149529103Y-100002454D02*
G01*
X149586999Y-100073000D01*
X149615997Y-100096798D01*
X150947198Y-101428000D01*
X150556802Y-101428000D01*
X149522000Y-100393199D01*
X149522000Y-99993799D01*
X149529103Y-100002454D01*
X149529103Y-100002454D01*
G37*
X149529103Y-100002454D02*
X149586999Y-100073000D01*
X149615997Y-100096798D01*
X150947198Y-101428000D01*
X150556802Y-101428000D01*
X149522000Y-100393199D01*
X149522000Y-99993799D01*
X149529103Y-100002454D01*
G36*
X150944361Y-98884323D02*
G01*
X150972000Y-98918001D01*
X151000998Y-98941799D01*
X152217198Y-100158000D01*
X151826802Y-100158000D01*
X150886999Y-99218198D01*
X150886999Y-98814428D01*
X150944361Y-98884323D01*
X150944361Y-98884323D01*
G37*
X150944361Y-98884323D02*
X150972000Y-98918001D01*
X151000998Y-98941799D01*
X152217198Y-100158000D01*
X151826802Y-100158000D01*
X150886999Y-99218198D01*
X150886999Y-98814428D01*
X150944361Y-98884323D01*
G36*
X129741294Y-94127014D02*
G01*
X129926866Y-94353134D01*
X130152986Y-94538706D01*
X130207791Y-94568000D01*
X130152986Y-94597294D01*
X129926866Y-94782866D01*
X129741294Y-95008986D01*
X129712000Y-95063791D01*
X129682706Y-95008986D01*
X129497134Y-94782866D01*
X129271014Y-94597294D01*
X129216209Y-94568000D01*
X129271014Y-94538706D01*
X129497134Y-94353134D01*
X129682706Y-94127014D01*
X129712000Y-94072209D01*
X129741294Y-94127014D01*
X129741294Y-94127014D01*
G37*
X129741294Y-94127014D02*
X129926866Y-94353134D01*
X130152986Y-94538706D01*
X130207791Y-94568000D01*
X130152986Y-94597294D01*
X129926866Y-94782866D01*
X129741294Y-95008986D01*
X129712000Y-95063791D01*
X129682706Y-95008986D01*
X129497134Y-94782866D01*
X129271014Y-94597294D01*
X129216209Y-94568000D01*
X129271014Y-94538706D01*
X129497134Y-94353134D01*
X129682706Y-94127014D01*
X129712000Y-94072209D01*
X129741294Y-94127014D01*
G36*
X127201294Y-94127014D02*
G01*
X127386866Y-94353134D01*
X127612986Y-94538706D01*
X127667791Y-94568000D01*
X127612986Y-94597294D01*
X127386866Y-94782866D01*
X127362393Y-94812687D01*
X127341502Y-94743820D01*
X127282537Y-94633506D01*
X127203185Y-94536815D01*
X127106494Y-94457463D01*
X126996180Y-94398498D01*
X126927313Y-94377607D01*
X126957134Y-94353134D01*
X127142706Y-94127014D01*
X127172000Y-94072209D01*
X127201294Y-94127014D01*
X127201294Y-94127014D01*
G37*
X127201294Y-94127014D02*
X127386866Y-94353134D01*
X127612986Y-94538706D01*
X127667791Y-94568000D01*
X127612986Y-94597294D01*
X127386866Y-94782866D01*
X127362393Y-94812687D01*
X127341502Y-94743820D01*
X127282537Y-94633506D01*
X127203185Y-94536815D01*
X127106494Y-94457463D01*
X126996180Y-94398498D01*
X126927313Y-94377607D01*
X126957134Y-94353134D01*
X127142706Y-94127014D01*
X127172000Y-94072209D01*
X127201294Y-94127014D01*
G36*
X142441294Y-94127014D02*
G01*
X142503448Y-94202749D01*
X142046749Y-94659448D01*
X141971014Y-94597294D01*
X141916209Y-94568000D01*
X141971014Y-94538706D01*
X142197134Y-94353134D01*
X142382706Y-94127014D01*
X142412000Y-94072209D01*
X142441294Y-94127014D01*
X142441294Y-94127014D01*
G37*
X142441294Y-94127014D02*
X142503448Y-94202749D01*
X142046749Y-94659448D01*
X141971014Y-94597294D01*
X141916209Y-94568000D01*
X141971014Y-94538706D01*
X142197134Y-94353134D01*
X142382706Y-94127014D01*
X142412000Y-94072209D01*
X142441294Y-94127014D01*
G36*
X147521294Y-94127014D02*
G01*
X147583448Y-94202749D01*
X147126749Y-94659448D01*
X147051014Y-94597294D01*
X146996209Y-94568000D01*
X147051014Y-94538706D01*
X147277134Y-94353134D01*
X147462706Y-94127014D01*
X147492000Y-94072209D01*
X147521294Y-94127014D01*
X147521294Y-94127014D01*
G37*
X147521294Y-94127014D02*
X147583448Y-94202749D01*
X147126749Y-94659448D01*
X147051014Y-94597294D01*
X146996209Y-94568000D01*
X147051014Y-94538706D01*
X147277134Y-94353134D01*
X147462706Y-94127014D01*
X147492000Y-94072209D01*
X147521294Y-94127014D01*
G36*
X129287026Y-91813724D02*
G01*
X129216454Y-91945754D01*
X129194952Y-92016638D01*
X129013034Y-91919401D01*
X128733111Y-91834487D01*
X128514950Y-91813000D01*
X128369050Y-91813000D01*
X128150889Y-91834487D01*
X127870966Y-91919401D01*
X127612986Y-92057294D01*
X127386866Y-92242866D01*
X127201294Y-92468986D01*
X127172000Y-92523791D01*
X127142706Y-92468986D01*
X126957134Y-92242866D01*
X126731014Y-92057294D01*
X126473034Y-91919401D01*
X126193111Y-91834487D01*
X125974950Y-91813000D01*
X125829050Y-91813000D01*
X125610889Y-91834487D01*
X125330966Y-91919401D01*
X125072986Y-92057294D01*
X124846866Y-92242866D01*
X124661294Y-92468986D01*
X124523401Y-92726966D01*
X124479142Y-92872868D01*
X124398943Y-92770465D01*
X124285416Y-92672875D01*
X124155031Y-92599309D01*
X124012800Y-92552593D01*
X123864188Y-92534523D01*
X123714906Y-92545792D01*
X123585899Y-92581732D01*
X123538575Y-92510907D01*
X123089093Y-92061425D01*
X122664917Y-91778000D01*
X129316344Y-91778000D01*
X129287026Y-91813724D01*
X129287026Y-91813724D01*
G37*
X129287026Y-91813724D02*
X129216454Y-91945754D01*
X129194952Y-92016638D01*
X129013034Y-91919401D01*
X128733111Y-91834487D01*
X128514950Y-91813000D01*
X128369050Y-91813000D01*
X128150889Y-91834487D01*
X127870966Y-91919401D01*
X127612986Y-92057294D01*
X127386866Y-92242866D01*
X127201294Y-92468986D01*
X127172000Y-92523791D01*
X127142706Y-92468986D01*
X126957134Y-92242866D01*
X126731014Y-92057294D01*
X126473034Y-91919401D01*
X126193111Y-91834487D01*
X125974950Y-91813000D01*
X125829050Y-91813000D01*
X125610889Y-91834487D01*
X125330966Y-91919401D01*
X125072986Y-92057294D01*
X124846866Y-92242866D01*
X124661294Y-92468986D01*
X124523401Y-92726966D01*
X124479142Y-92872868D01*
X124398943Y-92770465D01*
X124285416Y-92672875D01*
X124155031Y-92599309D01*
X124012800Y-92552593D01*
X123864188Y-92534523D01*
X123714906Y-92545792D01*
X123585899Y-92581732D01*
X123538575Y-92510907D01*
X123089093Y-92061425D01*
X122664917Y-91778000D01*
X129316344Y-91778000D01*
X129287026Y-91813724D01*
G36*
X141507995Y-91857203D02*
G01*
X141433111Y-91834487D01*
X141214950Y-91813000D01*
X141069050Y-91813000D01*
X140850889Y-91834487D01*
X140570966Y-91919401D01*
X140312986Y-92057294D01*
X140086866Y-92242866D01*
X139901294Y-92468986D01*
X139872000Y-92523791D01*
X139842706Y-92468986D01*
X139657134Y-92242866D01*
X139431014Y-92057294D01*
X139173034Y-91919401D01*
X138893111Y-91834487D01*
X138674950Y-91813000D01*
X138529050Y-91813000D01*
X138310889Y-91834487D01*
X138030966Y-91919401D01*
X137772986Y-92057294D01*
X137546866Y-92242866D01*
X137361294Y-92468986D01*
X137332000Y-92523791D01*
X137302706Y-92468986D01*
X137117134Y-92242866D01*
X136891014Y-92057294D01*
X136633034Y-91919401D01*
X136353111Y-91834487D01*
X136134950Y-91813000D01*
X135989050Y-91813000D01*
X135770889Y-91834487D01*
X135490966Y-91919401D01*
X135232986Y-92057294D01*
X135006866Y-92242866D01*
X134821294Y-92468986D01*
X134792000Y-92523791D01*
X134762706Y-92468986D01*
X134577134Y-92242866D01*
X134351014Y-92057294D01*
X134093034Y-91919401D01*
X133813111Y-91834487D01*
X133594950Y-91813000D01*
X133449050Y-91813000D01*
X133230889Y-91834487D01*
X132950966Y-91919401D01*
X132692986Y-92057294D01*
X132466866Y-92242866D01*
X132281294Y-92468986D01*
X132252000Y-92523791D01*
X132222706Y-92468986D01*
X132037134Y-92242866D01*
X131811014Y-92057294D01*
X131553034Y-91919401D01*
X131273111Y-91834487D01*
X131054950Y-91813000D01*
X130909050Y-91813000D01*
X130690889Y-91834487D01*
X130616004Y-91857203D01*
X130536801Y-91778000D01*
X141587198Y-91778000D01*
X141507995Y-91857203D01*
X141507995Y-91857203D01*
G37*
X141507995Y-91857203D02*
X141433111Y-91834487D01*
X141214950Y-91813000D01*
X141069050Y-91813000D01*
X140850889Y-91834487D01*
X140570966Y-91919401D01*
X140312986Y-92057294D01*
X140086866Y-92242866D01*
X139901294Y-92468986D01*
X139872000Y-92523791D01*
X139842706Y-92468986D01*
X139657134Y-92242866D01*
X139431014Y-92057294D01*
X139173034Y-91919401D01*
X138893111Y-91834487D01*
X138674950Y-91813000D01*
X138529050Y-91813000D01*
X138310889Y-91834487D01*
X138030966Y-91919401D01*
X137772986Y-92057294D01*
X137546866Y-92242866D01*
X137361294Y-92468986D01*
X137332000Y-92523791D01*
X137302706Y-92468986D01*
X137117134Y-92242866D01*
X136891014Y-92057294D01*
X136633034Y-91919401D01*
X136353111Y-91834487D01*
X136134950Y-91813000D01*
X135989050Y-91813000D01*
X135770889Y-91834487D01*
X135490966Y-91919401D01*
X135232986Y-92057294D01*
X135006866Y-92242866D01*
X134821294Y-92468986D01*
X134792000Y-92523791D01*
X134762706Y-92468986D01*
X134577134Y-92242866D01*
X134351014Y-92057294D01*
X134093034Y-91919401D01*
X133813111Y-91834487D01*
X133594950Y-91813000D01*
X133449050Y-91813000D01*
X133230889Y-91834487D01*
X132950966Y-91919401D01*
X132692986Y-92057294D01*
X132466866Y-92242866D01*
X132281294Y-92468986D01*
X132252000Y-92523791D01*
X132222706Y-92468986D01*
X132037134Y-92242866D01*
X131811014Y-92057294D01*
X131553034Y-91919401D01*
X131273111Y-91834487D01*
X131054950Y-91813000D01*
X130909050Y-91813000D01*
X130690889Y-91834487D01*
X130616004Y-91857203D01*
X130536801Y-91778000D01*
X141587198Y-91778000D01*
X141507995Y-91857203D01*
G36*
X149127995Y-91857203D02*
G01*
X149053111Y-91834487D01*
X148834950Y-91813000D01*
X148689050Y-91813000D01*
X148470889Y-91834487D01*
X148396004Y-91857203D01*
X148316801Y-91778000D01*
X149207198Y-91778000D01*
X149127995Y-91857203D01*
X149127995Y-91857203D01*
G37*
X149127995Y-91857203D02*
X149053111Y-91834487D01*
X148834950Y-91813000D01*
X148689050Y-91813000D01*
X148470889Y-91834487D01*
X148396004Y-91857203D01*
X148316801Y-91778000D01*
X149207198Y-91778000D01*
X149127995Y-91857203D01*
M02*
