G04 #@! TF.GenerationSoftware,KiCad,Pcbnew,(5.1.2-1)-1*
G04 #@! TF.CreationDate,2019-10-23T09:51:25+02:00*
G04 #@! TF.ProjectId,rpiz_pi_platter,7270697a-5f70-4695-9f70-6c6174746572,1.0*
G04 #@! TF.SameCoordinates,Original*
G04 #@! TF.FileFunction,Soldermask,Bot*
G04 #@! TF.FilePolarity,Negative*
%FSLAX46Y46*%
G04 Gerber Fmt 4.6, Leading zero omitted, Abs format (unit mm)*
G04 Created by KiCad (PCBNEW (5.1.2-1)-1) date 2019-10-23 09:51:25*
%MOMM*%
%LPD*%
G04 APERTURE LIST*
%ADD10C,0.100000*%
G04 APERTURE END LIST*
D10*
G36*
X179350433Y-116202893D02*
G01*
X179440657Y-116220839D01*
X179546267Y-116264585D01*
X179695621Y-116326449D01*
X179695622Y-116326450D01*
X179925086Y-116479772D01*
X180120228Y-116674914D01*
X180222675Y-116828237D01*
X180273551Y-116904379D01*
X180379161Y-117159344D01*
X180433000Y-117430012D01*
X180433000Y-117705988D01*
X180379161Y-117976656D01*
X180273551Y-118231621D01*
X180273550Y-118231622D01*
X180120228Y-118461086D01*
X179925086Y-118656228D01*
X179771763Y-118758675D01*
X179695621Y-118809551D01*
X179546267Y-118871415D01*
X179440657Y-118915161D01*
X179350433Y-118933107D01*
X179169988Y-118969000D01*
X178894012Y-118969000D01*
X178713567Y-118933107D01*
X178623343Y-118915161D01*
X178517733Y-118871415D01*
X178368379Y-118809551D01*
X178292237Y-118758675D01*
X178138914Y-118656228D01*
X177943772Y-118461086D01*
X177790450Y-118231622D01*
X177790449Y-118231621D01*
X177684839Y-117976656D01*
X177631000Y-117705988D01*
X177631000Y-117430012D01*
X177684839Y-117159344D01*
X177790449Y-116904379D01*
X177841325Y-116828237D01*
X177943772Y-116674914D01*
X178138914Y-116479772D01*
X178368378Y-116326450D01*
X178368379Y-116326449D01*
X178517733Y-116264585D01*
X178623343Y-116220839D01*
X178713567Y-116202893D01*
X178894012Y-116167000D01*
X179169988Y-116167000D01*
X179350433Y-116202893D01*
X179350433Y-116202893D01*
G37*
G36*
X121350433Y-116202893D02*
G01*
X121440657Y-116220839D01*
X121546267Y-116264585D01*
X121695621Y-116326449D01*
X121695622Y-116326450D01*
X121925086Y-116479772D01*
X122120228Y-116674914D01*
X122222675Y-116828237D01*
X122273551Y-116904379D01*
X122379161Y-117159344D01*
X122433000Y-117430012D01*
X122433000Y-117705988D01*
X122379161Y-117976656D01*
X122273551Y-118231621D01*
X122273550Y-118231622D01*
X122120228Y-118461086D01*
X121925086Y-118656228D01*
X121771763Y-118758675D01*
X121695621Y-118809551D01*
X121546267Y-118871415D01*
X121440657Y-118915161D01*
X121350433Y-118933107D01*
X121169988Y-118969000D01*
X120894012Y-118969000D01*
X120713567Y-118933107D01*
X120623343Y-118915161D01*
X120517733Y-118871415D01*
X120368379Y-118809551D01*
X120292237Y-118758675D01*
X120138914Y-118656228D01*
X119943772Y-118461086D01*
X119790450Y-118231622D01*
X119790449Y-118231621D01*
X119684839Y-117976656D01*
X119631000Y-117705988D01*
X119631000Y-117430012D01*
X119684839Y-117159344D01*
X119790449Y-116904379D01*
X119841325Y-116828237D01*
X119943772Y-116674914D01*
X120138914Y-116479772D01*
X120368378Y-116326450D01*
X120368379Y-116326449D01*
X120517733Y-116264585D01*
X120623343Y-116220839D01*
X120713567Y-116202893D01*
X120894012Y-116167000D01*
X121169988Y-116167000D01*
X121350433Y-116202893D01*
X121350433Y-116202893D01*
G37*
G36*
X169402443Y-105103519D02*
G01*
X169468627Y-105110037D01*
X169638466Y-105161557D01*
X169794991Y-105245222D01*
X169830729Y-105274552D01*
X169932186Y-105357814D01*
X170015448Y-105459271D01*
X170044778Y-105495009D01*
X170128443Y-105651534D01*
X170179963Y-105821373D01*
X170197359Y-105998000D01*
X170179963Y-106174627D01*
X170128443Y-106344466D01*
X170044778Y-106500991D01*
X170015448Y-106536729D01*
X169932186Y-106638186D01*
X169830729Y-106721448D01*
X169794991Y-106750778D01*
X169638466Y-106834443D01*
X169468627Y-106885963D01*
X169402442Y-106892482D01*
X169336260Y-106899000D01*
X169247740Y-106899000D01*
X169181558Y-106892482D01*
X169115373Y-106885963D01*
X168945534Y-106834443D01*
X168789009Y-106750778D01*
X168753271Y-106721448D01*
X168651814Y-106638186D01*
X168568552Y-106536729D01*
X168539222Y-106500991D01*
X168455557Y-106344466D01*
X168404037Y-106174627D01*
X168386641Y-105998000D01*
X168404037Y-105821373D01*
X168455557Y-105651534D01*
X168539222Y-105495009D01*
X168568552Y-105459271D01*
X168651814Y-105357814D01*
X168753271Y-105274552D01*
X168789009Y-105245222D01*
X168945534Y-105161557D01*
X169115373Y-105110037D01*
X169181558Y-105103518D01*
X169247740Y-105097000D01*
X169336260Y-105097000D01*
X169402443Y-105103519D01*
X169402443Y-105103519D01*
G37*
G36*
X166862443Y-105103519D02*
G01*
X166928627Y-105110037D01*
X167098466Y-105161557D01*
X167254991Y-105245222D01*
X167290729Y-105274552D01*
X167392186Y-105357814D01*
X167475448Y-105459271D01*
X167504778Y-105495009D01*
X167588443Y-105651534D01*
X167639963Y-105821373D01*
X167657359Y-105998000D01*
X167639963Y-106174627D01*
X167588443Y-106344466D01*
X167504778Y-106500991D01*
X167475448Y-106536729D01*
X167392186Y-106638186D01*
X167290729Y-106721448D01*
X167254991Y-106750778D01*
X167098466Y-106834443D01*
X166928627Y-106885963D01*
X166862442Y-106892482D01*
X166796260Y-106899000D01*
X166707740Y-106899000D01*
X166641558Y-106892482D01*
X166575373Y-106885963D01*
X166405534Y-106834443D01*
X166249009Y-106750778D01*
X166213271Y-106721448D01*
X166111814Y-106638186D01*
X166028552Y-106536729D01*
X165999222Y-106500991D01*
X165915557Y-106344466D01*
X165864037Y-106174627D01*
X165846641Y-105998000D01*
X165864037Y-105821373D01*
X165915557Y-105651534D01*
X165999222Y-105495009D01*
X166028552Y-105459271D01*
X166111814Y-105357814D01*
X166213271Y-105274552D01*
X166249009Y-105245222D01*
X166405534Y-105161557D01*
X166575373Y-105110037D01*
X166641558Y-105103518D01*
X166707740Y-105097000D01*
X166796260Y-105097000D01*
X166862443Y-105103519D01*
X166862443Y-105103519D01*
G37*
G36*
X164322443Y-105103519D02*
G01*
X164388627Y-105110037D01*
X164558466Y-105161557D01*
X164714991Y-105245222D01*
X164750729Y-105274552D01*
X164852186Y-105357814D01*
X164935448Y-105459271D01*
X164964778Y-105495009D01*
X165048443Y-105651534D01*
X165099963Y-105821373D01*
X165117359Y-105998000D01*
X165099963Y-106174627D01*
X165048443Y-106344466D01*
X164964778Y-106500991D01*
X164935448Y-106536729D01*
X164852186Y-106638186D01*
X164750729Y-106721448D01*
X164714991Y-106750778D01*
X164558466Y-106834443D01*
X164388627Y-106885963D01*
X164322442Y-106892482D01*
X164256260Y-106899000D01*
X164167740Y-106899000D01*
X164101558Y-106892482D01*
X164035373Y-106885963D01*
X163865534Y-106834443D01*
X163709009Y-106750778D01*
X163673271Y-106721448D01*
X163571814Y-106638186D01*
X163488552Y-106536729D01*
X163459222Y-106500991D01*
X163375557Y-106344466D01*
X163324037Y-106174627D01*
X163306641Y-105998000D01*
X163324037Y-105821373D01*
X163375557Y-105651534D01*
X163459222Y-105495009D01*
X163488552Y-105459271D01*
X163571814Y-105357814D01*
X163673271Y-105274552D01*
X163709009Y-105245222D01*
X163865534Y-105161557D01*
X164035373Y-105110037D01*
X164101558Y-105103518D01*
X164167740Y-105097000D01*
X164256260Y-105097000D01*
X164322443Y-105103519D01*
X164322443Y-105103519D01*
G37*
G36*
X161782443Y-105103519D02*
G01*
X161848627Y-105110037D01*
X162018466Y-105161557D01*
X162174991Y-105245222D01*
X162210729Y-105274552D01*
X162312186Y-105357814D01*
X162395448Y-105459271D01*
X162424778Y-105495009D01*
X162508443Y-105651534D01*
X162559963Y-105821373D01*
X162577359Y-105998000D01*
X162559963Y-106174627D01*
X162508443Y-106344466D01*
X162424778Y-106500991D01*
X162395448Y-106536729D01*
X162312186Y-106638186D01*
X162210729Y-106721448D01*
X162174991Y-106750778D01*
X162018466Y-106834443D01*
X161848627Y-106885963D01*
X161782442Y-106892482D01*
X161716260Y-106899000D01*
X161627740Y-106899000D01*
X161561558Y-106892482D01*
X161495373Y-106885963D01*
X161325534Y-106834443D01*
X161169009Y-106750778D01*
X161133271Y-106721448D01*
X161031814Y-106638186D01*
X160948552Y-106536729D01*
X160919222Y-106500991D01*
X160835557Y-106344466D01*
X160784037Y-106174627D01*
X160766641Y-105998000D01*
X160784037Y-105821373D01*
X160835557Y-105651534D01*
X160919222Y-105495009D01*
X160948552Y-105459271D01*
X161031814Y-105357814D01*
X161133271Y-105274552D01*
X161169009Y-105245222D01*
X161325534Y-105161557D01*
X161495373Y-105110037D01*
X161561558Y-105103518D01*
X161627740Y-105097000D01*
X161716260Y-105097000D01*
X161782443Y-105103519D01*
X161782443Y-105103519D01*
G37*
G36*
X159242443Y-105103519D02*
G01*
X159308627Y-105110037D01*
X159478466Y-105161557D01*
X159634991Y-105245222D01*
X159670729Y-105274552D01*
X159772186Y-105357814D01*
X159855448Y-105459271D01*
X159884778Y-105495009D01*
X159968443Y-105651534D01*
X160019963Y-105821373D01*
X160037359Y-105998000D01*
X160019963Y-106174627D01*
X159968443Y-106344466D01*
X159884778Y-106500991D01*
X159855448Y-106536729D01*
X159772186Y-106638186D01*
X159670729Y-106721448D01*
X159634991Y-106750778D01*
X159478466Y-106834443D01*
X159308627Y-106885963D01*
X159242442Y-106892482D01*
X159176260Y-106899000D01*
X159087740Y-106899000D01*
X159021558Y-106892482D01*
X158955373Y-106885963D01*
X158785534Y-106834443D01*
X158629009Y-106750778D01*
X158593271Y-106721448D01*
X158491814Y-106638186D01*
X158408552Y-106536729D01*
X158379222Y-106500991D01*
X158295557Y-106344466D01*
X158244037Y-106174627D01*
X158226641Y-105998000D01*
X158244037Y-105821373D01*
X158295557Y-105651534D01*
X158379222Y-105495009D01*
X158408552Y-105459271D01*
X158491814Y-105357814D01*
X158593271Y-105274552D01*
X158629009Y-105245222D01*
X158785534Y-105161557D01*
X158955373Y-105110037D01*
X159021558Y-105103518D01*
X159087740Y-105097000D01*
X159176260Y-105097000D01*
X159242443Y-105103519D01*
X159242443Y-105103519D01*
G37*
G36*
X156702443Y-105103519D02*
G01*
X156768627Y-105110037D01*
X156938466Y-105161557D01*
X157094991Y-105245222D01*
X157130729Y-105274552D01*
X157232186Y-105357814D01*
X157315448Y-105459271D01*
X157344778Y-105495009D01*
X157428443Y-105651534D01*
X157479963Y-105821373D01*
X157497359Y-105998000D01*
X157479963Y-106174627D01*
X157428443Y-106344466D01*
X157344778Y-106500991D01*
X157315448Y-106536729D01*
X157232186Y-106638186D01*
X157130729Y-106721448D01*
X157094991Y-106750778D01*
X156938466Y-106834443D01*
X156768627Y-106885963D01*
X156702442Y-106892482D01*
X156636260Y-106899000D01*
X156547740Y-106899000D01*
X156481558Y-106892482D01*
X156415373Y-106885963D01*
X156245534Y-106834443D01*
X156089009Y-106750778D01*
X156053271Y-106721448D01*
X155951814Y-106638186D01*
X155868552Y-106536729D01*
X155839222Y-106500991D01*
X155755557Y-106344466D01*
X155704037Y-106174627D01*
X155686641Y-105998000D01*
X155704037Y-105821373D01*
X155755557Y-105651534D01*
X155839222Y-105495009D01*
X155868552Y-105459271D01*
X155951814Y-105357814D01*
X156053271Y-105274552D01*
X156089009Y-105245222D01*
X156245534Y-105161557D01*
X156415373Y-105110037D01*
X156481558Y-105103518D01*
X156547740Y-105097000D01*
X156636260Y-105097000D01*
X156702443Y-105103519D01*
X156702443Y-105103519D01*
G37*
G36*
X154162443Y-105103519D02*
G01*
X154228627Y-105110037D01*
X154398466Y-105161557D01*
X154554991Y-105245222D01*
X154590729Y-105274552D01*
X154692186Y-105357814D01*
X154775448Y-105459271D01*
X154804778Y-105495009D01*
X154888443Y-105651534D01*
X154939963Y-105821373D01*
X154957359Y-105998000D01*
X154939963Y-106174627D01*
X154888443Y-106344466D01*
X154804778Y-106500991D01*
X154775448Y-106536729D01*
X154692186Y-106638186D01*
X154590729Y-106721448D01*
X154554991Y-106750778D01*
X154398466Y-106834443D01*
X154228627Y-106885963D01*
X154162442Y-106892482D01*
X154096260Y-106899000D01*
X154007740Y-106899000D01*
X153941558Y-106892482D01*
X153875373Y-106885963D01*
X153705534Y-106834443D01*
X153549009Y-106750778D01*
X153513271Y-106721448D01*
X153411814Y-106638186D01*
X153328552Y-106536729D01*
X153299222Y-106500991D01*
X153215557Y-106344466D01*
X153164037Y-106174627D01*
X153146641Y-105998000D01*
X153164037Y-105821373D01*
X153215557Y-105651534D01*
X153299222Y-105495009D01*
X153328552Y-105459271D01*
X153411814Y-105357814D01*
X153513271Y-105274552D01*
X153549009Y-105245222D01*
X153705534Y-105161557D01*
X153875373Y-105110037D01*
X153941558Y-105103518D01*
X154007740Y-105097000D01*
X154096260Y-105097000D01*
X154162443Y-105103519D01*
X154162443Y-105103519D01*
G37*
G36*
X142253000Y-106899000D02*
G01*
X140451000Y-106899000D01*
X140451000Y-105097000D01*
X142253000Y-105097000D01*
X142253000Y-106899000D01*
X142253000Y-106899000D01*
G37*
G36*
X138922443Y-105103519D02*
G01*
X138988627Y-105110037D01*
X139158466Y-105161557D01*
X139314991Y-105245222D01*
X139350729Y-105274552D01*
X139452186Y-105357814D01*
X139535448Y-105459271D01*
X139564778Y-105495009D01*
X139648443Y-105651534D01*
X139699963Y-105821373D01*
X139717359Y-105998000D01*
X139699963Y-106174627D01*
X139648443Y-106344466D01*
X139564778Y-106500991D01*
X139535448Y-106536729D01*
X139452186Y-106638186D01*
X139350729Y-106721448D01*
X139314991Y-106750778D01*
X139158466Y-106834443D01*
X138988627Y-106885963D01*
X138922442Y-106892482D01*
X138856260Y-106899000D01*
X138767740Y-106899000D01*
X138701558Y-106892482D01*
X138635373Y-106885963D01*
X138465534Y-106834443D01*
X138309009Y-106750778D01*
X138273271Y-106721448D01*
X138171814Y-106638186D01*
X138088552Y-106536729D01*
X138059222Y-106500991D01*
X137975557Y-106344466D01*
X137924037Y-106174627D01*
X137906641Y-105998000D01*
X137924037Y-105821373D01*
X137975557Y-105651534D01*
X138059222Y-105495009D01*
X138088552Y-105459271D01*
X138171814Y-105357814D01*
X138273271Y-105274552D01*
X138309009Y-105245222D01*
X138465534Y-105161557D01*
X138635373Y-105110037D01*
X138701558Y-105103518D01*
X138767740Y-105097000D01*
X138856260Y-105097000D01*
X138922443Y-105103519D01*
X138922443Y-105103519D01*
G37*
G36*
X136382443Y-105103519D02*
G01*
X136448627Y-105110037D01*
X136618466Y-105161557D01*
X136774991Y-105245222D01*
X136810729Y-105274552D01*
X136912186Y-105357814D01*
X136995448Y-105459271D01*
X137024778Y-105495009D01*
X137108443Y-105651534D01*
X137159963Y-105821373D01*
X137177359Y-105998000D01*
X137159963Y-106174627D01*
X137108443Y-106344466D01*
X137024778Y-106500991D01*
X136995448Y-106536729D01*
X136912186Y-106638186D01*
X136810729Y-106721448D01*
X136774991Y-106750778D01*
X136618466Y-106834443D01*
X136448627Y-106885963D01*
X136382442Y-106892482D01*
X136316260Y-106899000D01*
X136227740Y-106899000D01*
X136161558Y-106892482D01*
X136095373Y-106885963D01*
X135925534Y-106834443D01*
X135769009Y-106750778D01*
X135733271Y-106721448D01*
X135631814Y-106638186D01*
X135548552Y-106536729D01*
X135519222Y-106500991D01*
X135435557Y-106344466D01*
X135384037Y-106174627D01*
X135366641Y-105998000D01*
X135384037Y-105821373D01*
X135435557Y-105651534D01*
X135519222Y-105495009D01*
X135548552Y-105459271D01*
X135631814Y-105357814D01*
X135733271Y-105274552D01*
X135769009Y-105245222D01*
X135925534Y-105161557D01*
X136095373Y-105110037D01*
X136161558Y-105103518D01*
X136227740Y-105097000D01*
X136316260Y-105097000D01*
X136382443Y-105103519D01*
X136382443Y-105103519D01*
G37*
G36*
X133842443Y-105103519D02*
G01*
X133908627Y-105110037D01*
X134078466Y-105161557D01*
X134234991Y-105245222D01*
X134270729Y-105274552D01*
X134372186Y-105357814D01*
X134455448Y-105459271D01*
X134484778Y-105495009D01*
X134568443Y-105651534D01*
X134619963Y-105821373D01*
X134637359Y-105998000D01*
X134619963Y-106174627D01*
X134568443Y-106344466D01*
X134484778Y-106500991D01*
X134455448Y-106536729D01*
X134372186Y-106638186D01*
X134270729Y-106721448D01*
X134234991Y-106750778D01*
X134078466Y-106834443D01*
X133908627Y-106885963D01*
X133842442Y-106892482D01*
X133776260Y-106899000D01*
X133687740Y-106899000D01*
X133621558Y-106892482D01*
X133555373Y-106885963D01*
X133385534Y-106834443D01*
X133229009Y-106750778D01*
X133193271Y-106721448D01*
X133091814Y-106638186D01*
X133008552Y-106536729D01*
X132979222Y-106500991D01*
X132895557Y-106344466D01*
X132844037Y-106174627D01*
X132826641Y-105998000D01*
X132844037Y-105821373D01*
X132895557Y-105651534D01*
X132979222Y-105495009D01*
X133008552Y-105459271D01*
X133091814Y-105357814D01*
X133193271Y-105274552D01*
X133229009Y-105245222D01*
X133385534Y-105161557D01*
X133555373Y-105110037D01*
X133621558Y-105103518D01*
X133687740Y-105097000D01*
X133776260Y-105097000D01*
X133842443Y-105103519D01*
X133842443Y-105103519D01*
G37*
G36*
X131302443Y-105103519D02*
G01*
X131368627Y-105110037D01*
X131538466Y-105161557D01*
X131694991Y-105245222D01*
X131730729Y-105274552D01*
X131832186Y-105357814D01*
X131915448Y-105459271D01*
X131944778Y-105495009D01*
X132028443Y-105651534D01*
X132079963Y-105821373D01*
X132097359Y-105998000D01*
X132079963Y-106174627D01*
X132028443Y-106344466D01*
X131944778Y-106500991D01*
X131915448Y-106536729D01*
X131832186Y-106638186D01*
X131730729Y-106721448D01*
X131694991Y-106750778D01*
X131538466Y-106834443D01*
X131368627Y-106885963D01*
X131302442Y-106892482D01*
X131236260Y-106899000D01*
X131147740Y-106899000D01*
X131081558Y-106892482D01*
X131015373Y-106885963D01*
X130845534Y-106834443D01*
X130689009Y-106750778D01*
X130653271Y-106721448D01*
X130551814Y-106638186D01*
X130468552Y-106536729D01*
X130439222Y-106500991D01*
X130355557Y-106344466D01*
X130304037Y-106174627D01*
X130286641Y-105998000D01*
X130304037Y-105821373D01*
X130355557Y-105651534D01*
X130439222Y-105495009D01*
X130468552Y-105459271D01*
X130551814Y-105357814D01*
X130653271Y-105274552D01*
X130689009Y-105245222D01*
X130845534Y-105161557D01*
X131015373Y-105110037D01*
X131081558Y-105103518D01*
X131147740Y-105097000D01*
X131236260Y-105097000D01*
X131302443Y-105103519D01*
X131302443Y-105103519D01*
G37*
G36*
X128762443Y-105103519D02*
G01*
X128828627Y-105110037D01*
X128998466Y-105161557D01*
X129154991Y-105245222D01*
X129190729Y-105274552D01*
X129292186Y-105357814D01*
X129375448Y-105459271D01*
X129404778Y-105495009D01*
X129488443Y-105651534D01*
X129539963Y-105821373D01*
X129557359Y-105998000D01*
X129539963Y-106174627D01*
X129488443Y-106344466D01*
X129404778Y-106500991D01*
X129375448Y-106536729D01*
X129292186Y-106638186D01*
X129190729Y-106721448D01*
X129154991Y-106750778D01*
X128998466Y-106834443D01*
X128828627Y-106885963D01*
X128762442Y-106892482D01*
X128696260Y-106899000D01*
X128607740Y-106899000D01*
X128541558Y-106892482D01*
X128475373Y-106885963D01*
X128305534Y-106834443D01*
X128149009Y-106750778D01*
X128113271Y-106721448D01*
X128011814Y-106638186D01*
X127928552Y-106536729D01*
X127899222Y-106500991D01*
X127815557Y-106344466D01*
X127764037Y-106174627D01*
X127746641Y-105998000D01*
X127764037Y-105821373D01*
X127815557Y-105651534D01*
X127899222Y-105495009D01*
X127928552Y-105459271D01*
X128011814Y-105357814D01*
X128113271Y-105274552D01*
X128149009Y-105245222D01*
X128305534Y-105161557D01*
X128475373Y-105110037D01*
X128541558Y-105103518D01*
X128607740Y-105097000D01*
X128696260Y-105097000D01*
X128762443Y-105103519D01*
X128762443Y-105103519D01*
G37*
G36*
X126222443Y-105103519D02*
G01*
X126288627Y-105110037D01*
X126458466Y-105161557D01*
X126614991Y-105245222D01*
X126650729Y-105274552D01*
X126752186Y-105357814D01*
X126835448Y-105459271D01*
X126864778Y-105495009D01*
X126948443Y-105651534D01*
X126999963Y-105821373D01*
X127017359Y-105998000D01*
X126999963Y-106174627D01*
X126948443Y-106344466D01*
X126864778Y-106500991D01*
X126835448Y-106536729D01*
X126752186Y-106638186D01*
X126650729Y-106721448D01*
X126614991Y-106750778D01*
X126458466Y-106834443D01*
X126288627Y-106885963D01*
X126222442Y-106892482D01*
X126156260Y-106899000D01*
X126067740Y-106899000D01*
X126001558Y-106892482D01*
X125935373Y-106885963D01*
X125765534Y-106834443D01*
X125609009Y-106750778D01*
X125573271Y-106721448D01*
X125471814Y-106638186D01*
X125388552Y-106536729D01*
X125359222Y-106500991D01*
X125275557Y-106344466D01*
X125224037Y-106174627D01*
X125206641Y-105998000D01*
X125224037Y-105821373D01*
X125275557Y-105651534D01*
X125359222Y-105495009D01*
X125388552Y-105459271D01*
X125471814Y-105357814D01*
X125573271Y-105274552D01*
X125609009Y-105245222D01*
X125765534Y-105161557D01*
X125935373Y-105110037D01*
X126001558Y-105103518D01*
X126067740Y-105097000D01*
X126156260Y-105097000D01*
X126222443Y-105103519D01*
X126222443Y-105103519D01*
G37*
G36*
X175273000Y-106899000D02*
G01*
X173471000Y-106899000D01*
X173471000Y-105097000D01*
X175273000Y-105097000D01*
X175273000Y-106899000D01*
X175273000Y-106899000D01*
G37*
G36*
X171942443Y-105103519D02*
G01*
X172008627Y-105110037D01*
X172178466Y-105161557D01*
X172334991Y-105245222D01*
X172370729Y-105274552D01*
X172472186Y-105357814D01*
X172555448Y-105459271D01*
X172584778Y-105495009D01*
X172668443Y-105651534D01*
X172719963Y-105821373D01*
X172737359Y-105998000D01*
X172719963Y-106174627D01*
X172668443Y-106344466D01*
X172584778Y-106500991D01*
X172555448Y-106536729D01*
X172472186Y-106638186D01*
X172370729Y-106721448D01*
X172334991Y-106750778D01*
X172178466Y-106834443D01*
X172008627Y-106885963D01*
X171942442Y-106892482D01*
X171876260Y-106899000D01*
X171787740Y-106899000D01*
X171721558Y-106892482D01*
X171655373Y-106885963D01*
X171485534Y-106834443D01*
X171329009Y-106750778D01*
X171293271Y-106721448D01*
X171191814Y-106638186D01*
X171108552Y-106536729D01*
X171079222Y-106500991D01*
X170995557Y-106344466D01*
X170944037Y-106174627D01*
X170926641Y-105998000D01*
X170944037Y-105821373D01*
X170995557Y-105651534D01*
X171079222Y-105495009D01*
X171108552Y-105459271D01*
X171191814Y-105357814D01*
X171293271Y-105274552D01*
X171329009Y-105245222D01*
X171485534Y-105161557D01*
X171655373Y-105110037D01*
X171721558Y-105103518D01*
X171787740Y-105097000D01*
X171876260Y-105097000D01*
X171942443Y-105103519D01*
X171942443Y-105103519D01*
G37*
G36*
X128552443Y-94943519D02*
G01*
X128618627Y-94950037D01*
X128788466Y-95001557D01*
X128944991Y-95085222D01*
X128980729Y-95114552D01*
X129082186Y-95197814D01*
X129165448Y-95299271D01*
X129194778Y-95335009D01*
X129278443Y-95491534D01*
X129329963Y-95661373D01*
X129347359Y-95838000D01*
X129329963Y-96014627D01*
X129278443Y-96184466D01*
X129194778Y-96340991D01*
X129165448Y-96376729D01*
X129082186Y-96478186D01*
X128980729Y-96561448D01*
X128944991Y-96590778D01*
X128788466Y-96674443D01*
X128618627Y-96725963D01*
X128552442Y-96732482D01*
X128486260Y-96739000D01*
X128397740Y-96739000D01*
X128331558Y-96732482D01*
X128265373Y-96725963D01*
X128095534Y-96674443D01*
X127939009Y-96590778D01*
X127903271Y-96561448D01*
X127801814Y-96478186D01*
X127718552Y-96376729D01*
X127689222Y-96340991D01*
X127605557Y-96184466D01*
X127554037Y-96014627D01*
X127536641Y-95838000D01*
X127554037Y-95661373D01*
X127605557Y-95491534D01*
X127689222Y-95335009D01*
X127718552Y-95299271D01*
X127801814Y-95197814D01*
X127903271Y-95114552D01*
X127939009Y-95085222D01*
X128095534Y-95001557D01*
X128265373Y-94950037D01*
X128331557Y-94943519D01*
X128397740Y-94937000D01*
X128486260Y-94937000D01*
X128552443Y-94943519D01*
X128552443Y-94943519D01*
G37*
G36*
X126803000Y-96739000D02*
G01*
X125001000Y-96739000D01*
X125001000Y-94937000D01*
X126803000Y-94937000D01*
X126803000Y-96739000D01*
X126803000Y-96739000D01*
G37*
G36*
X174272443Y-94943519D02*
G01*
X174338627Y-94950037D01*
X174508466Y-95001557D01*
X174664991Y-95085222D01*
X174700729Y-95114552D01*
X174802186Y-95197814D01*
X174885448Y-95299271D01*
X174914778Y-95335009D01*
X174998443Y-95491534D01*
X175049963Y-95661373D01*
X175067359Y-95838000D01*
X175049963Y-96014627D01*
X174998443Y-96184466D01*
X174914778Y-96340991D01*
X174885448Y-96376729D01*
X174802186Y-96478186D01*
X174700729Y-96561448D01*
X174664991Y-96590778D01*
X174508466Y-96674443D01*
X174338627Y-96725963D01*
X174272442Y-96732482D01*
X174206260Y-96739000D01*
X174117740Y-96739000D01*
X174051558Y-96732482D01*
X173985373Y-96725963D01*
X173815534Y-96674443D01*
X173659009Y-96590778D01*
X173623271Y-96561448D01*
X173521814Y-96478186D01*
X173438552Y-96376729D01*
X173409222Y-96340991D01*
X173325557Y-96184466D01*
X173274037Y-96014627D01*
X173256641Y-95838000D01*
X173274037Y-95661373D01*
X173325557Y-95491534D01*
X173409222Y-95335009D01*
X173438552Y-95299271D01*
X173521814Y-95197814D01*
X173623271Y-95114552D01*
X173659009Y-95085222D01*
X173815534Y-95001557D01*
X173985373Y-94950037D01*
X174051557Y-94943519D01*
X174117740Y-94937000D01*
X174206260Y-94937000D01*
X174272443Y-94943519D01*
X174272443Y-94943519D01*
G37*
G36*
X171732443Y-94943519D02*
G01*
X171798627Y-94950037D01*
X171968466Y-95001557D01*
X172124991Y-95085222D01*
X172160729Y-95114552D01*
X172262186Y-95197814D01*
X172345448Y-95299271D01*
X172374778Y-95335009D01*
X172458443Y-95491534D01*
X172509963Y-95661373D01*
X172527359Y-95838000D01*
X172509963Y-96014627D01*
X172458443Y-96184466D01*
X172374778Y-96340991D01*
X172345448Y-96376729D01*
X172262186Y-96478186D01*
X172160729Y-96561448D01*
X172124991Y-96590778D01*
X171968466Y-96674443D01*
X171798627Y-96725963D01*
X171732442Y-96732482D01*
X171666260Y-96739000D01*
X171577740Y-96739000D01*
X171511558Y-96732482D01*
X171445373Y-96725963D01*
X171275534Y-96674443D01*
X171119009Y-96590778D01*
X171083271Y-96561448D01*
X170981814Y-96478186D01*
X170898552Y-96376729D01*
X170869222Y-96340991D01*
X170785557Y-96184466D01*
X170734037Y-96014627D01*
X170716641Y-95838000D01*
X170734037Y-95661373D01*
X170785557Y-95491534D01*
X170869222Y-95335009D01*
X170898552Y-95299271D01*
X170981814Y-95197814D01*
X171083271Y-95114552D01*
X171119009Y-95085222D01*
X171275534Y-95001557D01*
X171445373Y-94950037D01*
X171511557Y-94943519D01*
X171577740Y-94937000D01*
X171666260Y-94937000D01*
X171732443Y-94943519D01*
X171732443Y-94943519D01*
G37*
G36*
X169192443Y-94943519D02*
G01*
X169258627Y-94950037D01*
X169428466Y-95001557D01*
X169584991Y-95085222D01*
X169620729Y-95114552D01*
X169722186Y-95197814D01*
X169805448Y-95299271D01*
X169834778Y-95335009D01*
X169918443Y-95491534D01*
X169969963Y-95661373D01*
X169987359Y-95838000D01*
X169969963Y-96014627D01*
X169918443Y-96184466D01*
X169834778Y-96340991D01*
X169805448Y-96376729D01*
X169722186Y-96478186D01*
X169620729Y-96561448D01*
X169584991Y-96590778D01*
X169428466Y-96674443D01*
X169258627Y-96725963D01*
X169192442Y-96732482D01*
X169126260Y-96739000D01*
X169037740Y-96739000D01*
X168971558Y-96732482D01*
X168905373Y-96725963D01*
X168735534Y-96674443D01*
X168579009Y-96590778D01*
X168543271Y-96561448D01*
X168441814Y-96478186D01*
X168358552Y-96376729D01*
X168329222Y-96340991D01*
X168245557Y-96184466D01*
X168194037Y-96014627D01*
X168176641Y-95838000D01*
X168194037Y-95661373D01*
X168245557Y-95491534D01*
X168329222Y-95335009D01*
X168358552Y-95299271D01*
X168441814Y-95197814D01*
X168543271Y-95114552D01*
X168579009Y-95085222D01*
X168735534Y-95001557D01*
X168905373Y-94950037D01*
X168971557Y-94943519D01*
X169037740Y-94937000D01*
X169126260Y-94937000D01*
X169192443Y-94943519D01*
X169192443Y-94943519D01*
G37*
G36*
X166652443Y-94943519D02*
G01*
X166718627Y-94950037D01*
X166888466Y-95001557D01*
X167044991Y-95085222D01*
X167080729Y-95114552D01*
X167182186Y-95197814D01*
X167265448Y-95299271D01*
X167294778Y-95335009D01*
X167378443Y-95491534D01*
X167429963Y-95661373D01*
X167447359Y-95838000D01*
X167429963Y-96014627D01*
X167378443Y-96184466D01*
X167294778Y-96340991D01*
X167265448Y-96376729D01*
X167182186Y-96478186D01*
X167080729Y-96561448D01*
X167044991Y-96590778D01*
X166888466Y-96674443D01*
X166718627Y-96725963D01*
X166652442Y-96732482D01*
X166586260Y-96739000D01*
X166497740Y-96739000D01*
X166431558Y-96732482D01*
X166365373Y-96725963D01*
X166195534Y-96674443D01*
X166039009Y-96590778D01*
X166003271Y-96561448D01*
X165901814Y-96478186D01*
X165818552Y-96376729D01*
X165789222Y-96340991D01*
X165705557Y-96184466D01*
X165654037Y-96014627D01*
X165636641Y-95838000D01*
X165654037Y-95661373D01*
X165705557Y-95491534D01*
X165789222Y-95335009D01*
X165818552Y-95299271D01*
X165901814Y-95197814D01*
X166003271Y-95114552D01*
X166039009Y-95085222D01*
X166195534Y-95001557D01*
X166365373Y-94950037D01*
X166431557Y-94943519D01*
X166497740Y-94937000D01*
X166586260Y-94937000D01*
X166652443Y-94943519D01*
X166652443Y-94943519D01*
G37*
G36*
X164112443Y-94943519D02*
G01*
X164178627Y-94950037D01*
X164348466Y-95001557D01*
X164504991Y-95085222D01*
X164540729Y-95114552D01*
X164642186Y-95197814D01*
X164725448Y-95299271D01*
X164754778Y-95335009D01*
X164838443Y-95491534D01*
X164889963Y-95661373D01*
X164907359Y-95838000D01*
X164889963Y-96014627D01*
X164838443Y-96184466D01*
X164754778Y-96340991D01*
X164725448Y-96376729D01*
X164642186Y-96478186D01*
X164540729Y-96561448D01*
X164504991Y-96590778D01*
X164348466Y-96674443D01*
X164178627Y-96725963D01*
X164112442Y-96732482D01*
X164046260Y-96739000D01*
X163957740Y-96739000D01*
X163891558Y-96732482D01*
X163825373Y-96725963D01*
X163655534Y-96674443D01*
X163499009Y-96590778D01*
X163463271Y-96561448D01*
X163361814Y-96478186D01*
X163278552Y-96376729D01*
X163249222Y-96340991D01*
X163165557Y-96184466D01*
X163114037Y-96014627D01*
X163096641Y-95838000D01*
X163114037Y-95661373D01*
X163165557Y-95491534D01*
X163249222Y-95335009D01*
X163278552Y-95299271D01*
X163361814Y-95197814D01*
X163463271Y-95114552D01*
X163499009Y-95085222D01*
X163655534Y-95001557D01*
X163825373Y-94950037D01*
X163891557Y-94943519D01*
X163957740Y-94937000D01*
X164046260Y-94937000D01*
X164112443Y-94943519D01*
X164112443Y-94943519D01*
G37*
G36*
X161572443Y-94943519D02*
G01*
X161638627Y-94950037D01*
X161808466Y-95001557D01*
X161964991Y-95085222D01*
X162000729Y-95114552D01*
X162102186Y-95197814D01*
X162185448Y-95299271D01*
X162214778Y-95335009D01*
X162298443Y-95491534D01*
X162349963Y-95661373D01*
X162367359Y-95838000D01*
X162349963Y-96014627D01*
X162298443Y-96184466D01*
X162214778Y-96340991D01*
X162185448Y-96376729D01*
X162102186Y-96478186D01*
X162000729Y-96561448D01*
X161964991Y-96590778D01*
X161808466Y-96674443D01*
X161638627Y-96725963D01*
X161572442Y-96732482D01*
X161506260Y-96739000D01*
X161417740Y-96739000D01*
X161351558Y-96732482D01*
X161285373Y-96725963D01*
X161115534Y-96674443D01*
X160959009Y-96590778D01*
X160923271Y-96561448D01*
X160821814Y-96478186D01*
X160738552Y-96376729D01*
X160709222Y-96340991D01*
X160625557Y-96184466D01*
X160574037Y-96014627D01*
X160556641Y-95838000D01*
X160574037Y-95661373D01*
X160625557Y-95491534D01*
X160709222Y-95335009D01*
X160738552Y-95299271D01*
X160821814Y-95197814D01*
X160923271Y-95114552D01*
X160959009Y-95085222D01*
X161115534Y-95001557D01*
X161285373Y-94950037D01*
X161351557Y-94943519D01*
X161417740Y-94937000D01*
X161506260Y-94937000D01*
X161572443Y-94943519D01*
X161572443Y-94943519D01*
G37*
G36*
X159032443Y-94943519D02*
G01*
X159098627Y-94950037D01*
X159268466Y-95001557D01*
X159424991Y-95085222D01*
X159460729Y-95114552D01*
X159562186Y-95197814D01*
X159645448Y-95299271D01*
X159674778Y-95335009D01*
X159758443Y-95491534D01*
X159809963Y-95661373D01*
X159827359Y-95838000D01*
X159809963Y-96014627D01*
X159758443Y-96184466D01*
X159674778Y-96340991D01*
X159645448Y-96376729D01*
X159562186Y-96478186D01*
X159460729Y-96561448D01*
X159424991Y-96590778D01*
X159268466Y-96674443D01*
X159098627Y-96725963D01*
X159032442Y-96732482D01*
X158966260Y-96739000D01*
X158877740Y-96739000D01*
X158811558Y-96732482D01*
X158745373Y-96725963D01*
X158575534Y-96674443D01*
X158419009Y-96590778D01*
X158383271Y-96561448D01*
X158281814Y-96478186D01*
X158198552Y-96376729D01*
X158169222Y-96340991D01*
X158085557Y-96184466D01*
X158034037Y-96014627D01*
X158016641Y-95838000D01*
X158034037Y-95661373D01*
X158085557Y-95491534D01*
X158169222Y-95335009D01*
X158198552Y-95299271D01*
X158281814Y-95197814D01*
X158383271Y-95114552D01*
X158419009Y-95085222D01*
X158575534Y-95001557D01*
X158745373Y-94950037D01*
X158811557Y-94943519D01*
X158877740Y-94937000D01*
X158966260Y-94937000D01*
X159032443Y-94943519D01*
X159032443Y-94943519D01*
G37*
G36*
X156492443Y-94943519D02*
G01*
X156558627Y-94950037D01*
X156728466Y-95001557D01*
X156884991Y-95085222D01*
X156920729Y-95114552D01*
X157022186Y-95197814D01*
X157105448Y-95299271D01*
X157134778Y-95335009D01*
X157218443Y-95491534D01*
X157269963Y-95661373D01*
X157287359Y-95838000D01*
X157269963Y-96014627D01*
X157218443Y-96184466D01*
X157134778Y-96340991D01*
X157105448Y-96376729D01*
X157022186Y-96478186D01*
X156920729Y-96561448D01*
X156884991Y-96590778D01*
X156728466Y-96674443D01*
X156558627Y-96725963D01*
X156492442Y-96732482D01*
X156426260Y-96739000D01*
X156337740Y-96739000D01*
X156271558Y-96732482D01*
X156205373Y-96725963D01*
X156035534Y-96674443D01*
X155879009Y-96590778D01*
X155843271Y-96561448D01*
X155741814Y-96478186D01*
X155658552Y-96376729D01*
X155629222Y-96340991D01*
X155545557Y-96184466D01*
X155494037Y-96014627D01*
X155476641Y-95838000D01*
X155494037Y-95661373D01*
X155545557Y-95491534D01*
X155629222Y-95335009D01*
X155658552Y-95299271D01*
X155741814Y-95197814D01*
X155843271Y-95114552D01*
X155879009Y-95085222D01*
X156035534Y-95001557D01*
X156205373Y-94950037D01*
X156271557Y-94943519D01*
X156337740Y-94937000D01*
X156426260Y-94937000D01*
X156492443Y-94943519D01*
X156492443Y-94943519D01*
G37*
G36*
X153952443Y-94943519D02*
G01*
X154018627Y-94950037D01*
X154188466Y-95001557D01*
X154344991Y-95085222D01*
X154380729Y-95114552D01*
X154482186Y-95197814D01*
X154565448Y-95299271D01*
X154594778Y-95335009D01*
X154678443Y-95491534D01*
X154729963Y-95661373D01*
X154747359Y-95838000D01*
X154729963Y-96014627D01*
X154678443Y-96184466D01*
X154594778Y-96340991D01*
X154565448Y-96376729D01*
X154482186Y-96478186D01*
X154380729Y-96561448D01*
X154344991Y-96590778D01*
X154188466Y-96674443D01*
X154018627Y-96725963D01*
X153952442Y-96732482D01*
X153886260Y-96739000D01*
X153797740Y-96739000D01*
X153731558Y-96732482D01*
X153665373Y-96725963D01*
X153495534Y-96674443D01*
X153339009Y-96590778D01*
X153303271Y-96561448D01*
X153201814Y-96478186D01*
X153118552Y-96376729D01*
X153089222Y-96340991D01*
X153005557Y-96184466D01*
X152954037Y-96014627D01*
X152936641Y-95838000D01*
X152954037Y-95661373D01*
X153005557Y-95491534D01*
X153089222Y-95335009D01*
X153118552Y-95299271D01*
X153201814Y-95197814D01*
X153303271Y-95114552D01*
X153339009Y-95085222D01*
X153495534Y-95001557D01*
X153665373Y-94950037D01*
X153731557Y-94943519D01*
X153797740Y-94937000D01*
X153886260Y-94937000D01*
X153952443Y-94943519D01*
X153952443Y-94943519D01*
G37*
G36*
X151412443Y-94943519D02*
G01*
X151478627Y-94950037D01*
X151648466Y-95001557D01*
X151804991Y-95085222D01*
X151840729Y-95114552D01*
X151942186Y-95197814D01*
X152025448Y-95299271D01*
X152054778Y-95335009D01*
X152138443Y-95491534D01*
X152189963Y-95661373D01*
X152207359Y-95838000D01*
X152189963Y-96014627D01*
X152138443Y-96184466D01*
X152054778Y-96340991D01*
X152025448Y-96376729D01*
X151942186Y-96478186D01*
X151840729Y-96561448D01*
X151804991Y-96590778D01*
X151648466Y-96674443D01*
X151478627Y-96725963D01*
X151412442Y-96732482D01*
X151346260Y-96739000D01*
X151257740Y-96739000D01*
X151191558Y-96732482D01*
X151125373Y-96725963D01*
X150955534Y-96674443D01*
X150799009Y-96590778D01*
X150763271Y-96561448D01*
X150661814Y-96478186D01*
X150578552Y-96376729D01*
X150549222Y-96340991D01*
X150465557Y-96184466D01*
X150414037Y-96014627D01*
X150396641Y-95838000D01*
X150414037Y-95661373D01*
X150465557Y-95491534D01*
X150549222Y-95335009D01*
X150578552Y-95299271D01*
X150661814Y-95197814D01*
X150763271Y-95114552D01*
X150799009Y-95085222D01*
X150955534Y-95001557D01*
X151125373Y-94950037D01*
X151191557Y-94943519D01*
X151257740Y-94937000D01*
X151346260Y-94937000D01*
X151412443Y-94943519D01*
X151412443Y-94943519D01*
G37*
G36*
X148872443Y-94943519D02*
G01*
X148938627Y-94950037D01*
X149108466Y-95001557D01*
X149264991Y-95085222D01*
X149300729Y-95114552D01*
X149402186Y-95197814D01*
X149485448Y-95299271D01*
X149514778Y-95335009D01*
X149598443Y-95491534D01*
X149649963Y-95661373D01*
X149667359Y-95838000D01*
X149649963Y-96014627D01*
X149598443Y-96184466D01*
X149514778Y-96340991D01*
X149485448Y-96376729D01*
X149402186Y-96478186D01*
X149300729Y-96561448D01*
X149264991Y-96590778D01*
X149108466Y-96674443D01*
X148938627Y-96725963D01*
X148872442Y-96732482D01*
X148806260Y-96739000D01*
X148717740Y-96739000D01*
X148651558Y-96732482D01*
X148585373Y-96725963D01*
X148415534Y-96674443D01*
X148259009Y-96590778D01*
X148223271Y-96561448D01*
X148121814Y-96478186D01*
X148038552Y-96376729D01*
X148009222Y-96340991D01*
X147925557Y-96184466D01*
X147874037Y-96014627D01*
X147856641Y-95838000D01*
X147874037Y-95661373D01*
X147925557Y-95491534D01*
X148009222Y-95335009D01*
X148038552Y-95299271D01*
X148121814Y-95197814D01*
X148223271Y-95114552D01*
X148259009Y-95085222D01*
X148415534Y-95001557D01*
X148585373Y-94950037D01*
X148651557Y-94943519D01*
X148717740Y-94937000D01*
X148806260Y-94937000D01*
X148872443Y-94943519D01*
X148872443Y-94943519D01*
G37*
G36*
X146332443Y-94943519D02*
G01*
X146398627Y-94950037D01*
X146568466Y-95001557D01*
X146724991Y-95085222D01*
X146760729Y-95114552D01*
X146862186Y-95197814D01*
X146945448Y-95299271D01*
X146974778Y-95335009D01*
X147058443Y-95491534D01*
X147109963Y-95661373D01*
X147127359Y-95838000D01*
X147109963Y-96014627D01*
X147058443Y-96184466D01*
X146974778Y-96340991D01*
X146945448Y-96376729D01*
X146862186Y-96478186D01*
X146760729Y-96561448D01*
X146724991Y-96590778D01*
X146568466Y-96674443D01*
X146398627Y-96725963D01*
X146332442Y-96732482D01*
X146266260Y-96739000D01*
X146177740Y-96739000D01*
X146111558Y-96732482D01*
X146045373Y-96725963D01*
X145875534Y-96674443D01*
X145719009Y-96590778D01*
X145683271Y-96561448D01*
X145581814Y-96478186D01*
X145498552Y-96376729D01*
X145469222Y-96340991D01*
X145385557Y-96184466D01*
X145334037Y-96014627D01*
X145316641Y-95838000D01*
X145334037Y-95661373D01*
X145385557Y-95491534D01*
X145469222Y-95335009D01*
X145498552Y-95299271D01*
X145581814Y-95197814D01*
X145683271Y-95114552D01*
X145719009Y-95085222D01*
X145875534Y-95001557D01*
X146045373Y-94950037D01*
X146111557Y-94943519D01*
X146177740Y-94937000D01*
X146266260Y-94937000D01*
X146332443Y-94943519D01*
X146332443Y-94943519D01*
G37*
G36*
X143792443Y-94943519D02*
G01*
X143858627Y-94950037D01*
X144028466Y-95001557D01*
X144184991Y-95085222D01*
X144220729Y-95114552D01*
X144322186Y-95197814D01*
X144405448Y-95299271D01*
X144434778Y-95335009D01*
X144518443Y-95491534D01*
X144569963Y-95661373D01*
X144587359Y-95838000D01*
X144569963Y-96014627D01*
X144518443Y-96184466D01*
X144434778Y-96340991D01*
X144405448Y-96376729D01*
X144322186Y-96478186D01*
X144220729Y-96561448D01*
X144184991Y-96590778D01*
X144028466Y-96674443D01*
X143858627Y-96725963D01*
X143792442Y-96732482D01*
X143726260Y-96739000D01*
X143637740Y-96739000D01*
X143571558Y-96732482D01*
X143505373Y-96725963D01*
X143335534Y-96674443D01*
X143179009Y-96590778D01*
X143143271Y-96561448D01*
X143041814Y-96478186D01*
X142958552Y-96376729D01*
X142929222Y-96340991D01*
X142845557Y-96184466D01*
X142794037Y-96014627D01*
X142776641Y-95838000D01*
X142794037Y-95661373D01*
X142845557Y-95491534D01*
X142929222Y-95335009D01*
X142958552Y-95299271D01*
X143041814Y-95197814D01*
X143143271Y-95114552D01*
X143179009Y-95085222D01*
X143335534Y-95001557D01*
X143505373Y-94950037D01*
X143571557Y-94943519D01*
X143637740Y-94937000D01*
X143726260Y-94937000D01*
X143792443Y-94943519D01*
X143792443Y-94943519D01*
G37*
G36*
X141252443Y-94943519D02*
G01*
X141318627Y-94950037D01*
X141488466Y-95001557D01*
X141644991Y-95085222D01*
X141680729Y-95114552D01*
X141782186Y-95197814D01*
X141865448Y-95299271D01*
X141894778Y-95335009D01*
X141978443Y-95491534D01*
X142029963Y-95661373D01*
X142047359Y-95838000D01*
X142029963Y-96014627D01*
X141978443Y-96184466D01*
X141894778Y-96340991D01*
X141865448Y-96376729D01*
X141782186Y-96478186D01*
X141680729Y-96561448D01*
X141644991Y-96590778D01*
X141488466Y-96674443D01*
X141318627Y-96725963D01*
X141252442Y-96732482D01*
X141186260Y-96739000D01*
X141097740Y-96739000D01*
X141031558Y-96732482D01*
X140965373Y-96725963D01*
X140795534Y-96674443D01*
X140639009Y-96590778D01*
X140603271Y-96561448D01*
X140501814Y-96478186D01*
X140418552Y-96376729D01*
X140389222Y-96340991D01*
X140305557Y-96184466D01*
X140254037Y-96014627D01*
X140236641Y-95838000D01*
X140254037Y-95661373D01*
X140305557Y-95491534D01*
X140389222Y-95335009D01*
X140418552Y-95299271D01*
X140501814Y-95197814D01*
X140603271Y-95114552D01*
X140639009Y-95085222D01*
X140795534Y-95001557D01*
X140965373Y-94950037D01*
X141031557Y-94943519D01*
X141097740Y-94937000D01*
X141186260Y-94937000D01*
X141252443Y-94943519D01*
X141252443Y-94943519D01*
G37*
G36*
X138712443Y-94943519D02*
G01*
X138778627Y-94950037D01*
X138948466Y-95001557D01*
X139104991Y-95085222D01*
X139140729Y-95114552D01*
X139242186Y-95197814D01*
X139325448Y-95299271D01*
X139354778Y-95335009D01*
X139438443Y-95491534D01*
X139489963Y-95661373D01*
X139507359Y-95838000D01*
X139489963Y-96014627D01*
X139438443Y-96184466D01*
X139354778Y-96340991D01*
X139325448Y-96376729D01*
X139242186Y-96478186D01*
X139140729Y-96561448D01*
X139104991Y-96590778D01*
X138948466Y-96674443D01*
X138778627Y-96725963D01*
X138712442Y-96732482D01*
X138646260Y-96739000D01*
X138557740Y-96739000D01*
X138491558Y-96732482D01*
X138425373Y-96725963D01*
X138255534Y-96674443D01*
X138099009Y-96590778D01*
X138063271Y-96561448D01*
X137961814Y-96478186D01*
X137878552Y-96376729D01*
X137849222Y-96340991D01*
X137765557Y-96184466D01*
X137714037Y-96014627D01*
X137696641Y-95838000D01*
X137714037Y-95661373D01*
X137765557Y-95491534D01*
X137849222Y-95335009D01*
X137878552Y-95299271D01*
X137961814Y-95197814D01*
X138063271Y-95114552D01*
X138099009Y-95085222D01*
X138255534Y-95001557D01*
X138425373Y-94950037D01*
X138491557Y-94943519D01*
X138557740Y-94937000D01*
X138646260Y-94937000D01*
X138712443Y-94943519D01*
X138712443Y-94943519D01*
G37*
G36*
X136172443Y-94943519D02*
G01*
X136238627Y-94950037D01*
X136408466Y-95001557D01*
X136564991Y-95085222D01*
X136600729Y-95114552D01*
X136702186Y-95197814D01*
X136785448Y-95299271D01*
X136814778Y-95335009D01*
X136898443Y-95491534D01*
X136949963Y-95661373D01*
X136967359Y-95838000D01*
X136949963Y-96014627D01*
X136898443Y-96184466D01*
X136814778Y-96340991D01*
X136785448Y-96376729D01*
X136702186Y-96478186D01*
X136600729Y-96561448D01*
X136564991Y-96590778D01*
X136408466Y-96674443D01*
X136238627Y-96725963D01*
X136172442Y-96732482D01*
X136106260Y-96739000D01*
X136017740Y-96739000D01*
X135951558Y-96732482D01*
X135885373Y-96725963D01*
X135715534Y-96674443D01*
X135559009Y-96590778D01*
X135523271Y-96561448D01*
X135421814Y-96478186D01*
X135338552Y-96376729D01*
X135309222Y-96340991D01*
X135225557Y-96184466D01*
X135174037Y-96014627D01*
X135156641Y-95838000D01*
X135174037Y-95661373D01*
X135225557Y-95491534D01*
X135309222Y-95335009D01*
X135338552Y-95299271D01*
X135421814Y-95197814D01*
X135523271Y-95114552D01*
X135559009Y-95085222D01*
X135715534Y-95001557D01*
X135885373Y-94950037D01*
X135951557Y-94943519D01*
X136017740Y-94937000D01*
X136106260Y-94937000D01*
X136172443Y-94943519D01*
X136172443Y-94943519D01*
G37*
G36*
X133632443Y-94943519D02*
G01*
X133698627Y-94950037D01*
X133868466Y-95001557D01*
X134024991Y-95085222D01*
X134060729Y-95114552D01*
X134162186Y-95197814D01*
X134245448Y-95299271D01*
X134274778Y-95335009D01*
X134358443Y-95491534D01*
X134409963Y-95661373D01*
X134427359Y-95838000D01*
X134409963Y-96014627D01*
X134358443Y-96184466D01*
X134274778Y-96340991D01*
X134245448Y-96376729D01*
X134162186Y-96478186D01*
X134060729Y-96561448D01*
X134024991Y-96590778D01*
X133868466Y-96674443D01*
X133698627Y-96725963D01*
X133632442Y-96732482D01*
X133566260Y-96739000D01*
X133477740Y-96739000D01*
X133411558Y-96732482D01*
X133345373Y-96725963D01*
X133175534Y-96674443D01*
X133019009Y-96590778D01*
X132983271Y-96561448D01*
X132881814Y-96478186D01*
X132798552Y-96376729D01*
X132769222Y-96340991D01*
X132685557Y-96184466D01*
X132634037Y-96014627D01*
X132616641Y-95838000D01*
X132634037Y-95661373D01*
X132685557Y-95491534D01*
X132769222Y-95335009D01*
X132798552Y-95299271D01*
X132881814Y-95197814D01*
X132983271Y-95114552D01*
X133019009Y-95085222D01*
X133175534Y-95001557D01*
X133345373Y-94950037D01*
X133411557Y-94943519D01*
X133477740Y-94937000D01*
X133566260Y-94937000D01*
X133632443Y-94943519D01*
X133632443Y-94943519D01*
G37*
G36*
X131092443Y-94943519D02*
G01*
X131158627Y-94950037D01*
X131328466Y-95001557D01*
X131484991Y-95085222D01*
X131520729Y-95114552D01*
X131622186Y-95197814D01*
X131705448Y-95299271D01*
X131734778Y-95335009D01*
X131818443Y-95491534D01*
X131869963Y-95661373D01*
X131887359Y-95838000D01*
X131869963Y-96014627D01*
X131818443Y-96184466D01*
X131734778Y-96340991D01*
X131705448Y-96376729D01*
X131622186Y-96478186D01*
X131520729Y-96561448D01*
X131484991Y-96590778D01*
X131328466Y-96674443D01*
X131158627Y-96725963D01*
X131092442Y-96732482D01*
X131026260Y-96739000D01*
X130937740Y-96739000D01*
X130871558Y-96732482D01*
X130805373Y-96725963D01*
X130635534Y-96674443D01*
X130479009Y-96590778D01*
X130443271Y-96561448D01*
X130341814Y-96478186D01*
X130258552Y-96376729D01*
X130229222Y-96340991D01*
X130145557Y-96184466D01*
X130094037Y-96014627D01*
X130076641Y-95838000D01*
X130094037Y-95661373D01*
X130145557Y-95491534D01*
X130229222Y-95335009D01*
X130258552Y-95299271D01*
X130341814Y-95197814D01*
X130443271Y-95114552D01*
X130479009Y-95085222D01*
X130635534Y-95001557D01*
X130805373Y-94950037D01*
X130871557Y-94943519D01*
X130937740Y-94937000D01*
X131026260Y-94937000D01*
X131092443Y-94943519D01*
X131092443Y-94943519D01*
G37*
G36*
X179350433Y-93202893D02*
G01*
X179440657Y-93220839D01*
X179546267Y-93264585D01*
X179695621Y-93326449D01*
X179695622Y-93326450D01*
X179925086Y-93479772D01*
X180120228Y-93674914D01*
X180204468Y-93800989D01*
X180273551Y-93904379D01*
X180287554Y-93938186D01*
X180379161Y-94159343D01*
X180433000Y-94430014D01*
X180433000Y-94705986D01*
X180379161Y-94976657D01*
X180335415Y-95082267D01*
X180273551Y-95231621D01*
X180273550Y-95231622D01*
X180120228Y-95461086D01*
X179925086Y-95656228D01*
X179771763Y-95758675D01*
X179695621Y-95809551D01*
X179546267Y-95871415D01*
X179440657Y-95915161D01*
X179350433Y-95933107D01*
X179169988Y-95969000D01*
X178894012Y-95969000D01*
X178713567Y-95933107D01*
X178623343Y-95915161D01*
X178517733Y-95871415D01*
X178368379Y-95809551D01*
X178292237Y-95758675D01*
X178138914Y-95656228D01*
X177943772Y-95461086D01*
X177790450Y-95231622D01*
X177790449Y-95231621D01*
X177728585Y-95082267D01*
X177684839Y-94976657D01*
X177631000Y-94705986D01*
X177631000Y-94430014D01*
X177684839Y-94159343D01*
X177776446Y-93938186D01*
X177790449Y-93904379D01*
X177859532Y-93800989D01*
X177943772Y-93674914D01*
X178138914Y-93479772D01*
X178368378Y-93326450D01*
X178368379Y-93326449D01*
X178517733Y-93264585D01*
X178623343Y-93220839D01*
X178713567Y-93202893D01*
X178894012Y-93167000D01*
X179169988Y-93167000D01*
X179350433Y-93202893D01*
X179350433Y-93202893D01*
G37*
G36*
X121350433Y-93202893D02*
G01*
X121440657Y-93220839D01*
X121546267Y-93264585D01*
X121695621Y-93326449D01*
X121695622Y-93326450D01*
X121925086Y-93479772D01*
X122120228Y-93674914D01*
X122204468Y-93800989D01*
X122273551Y-93904379D01*
X122287554Y-93938186D01*
X122379161Y-94159343D01*
X122433000Y-94430014D01*
X122433000Y-94705986D01*
X122379161Y-94976657D01*
X122335415Y-95082267D01*
X122273551Y-95231621D01*
X122273550Y-95231622D01*
X122120228Y-95461086D01*
X121925086Y-95656228D01*
X121771763Y-95758675D01*
X121695621Y-95809551D01*
X121546267Y-95871415D01*
X121440657Y-95915161D01*
X121350433Y-95933107D01*
X121169988Y-95969000D01*
X120894012Y-95969000D01*
X120713567Y-95933107D01*
X120623343Y-95915161D01*
X120517733Y-95871415D01*
X120368379Y-95809551D01*
X120292237Y-95758675D01*
X120138914Y-95656228D01*
X119943772Y-95461086D01*
X119790450Y-95231622D01*
X119790449Y-95231621D01*
X119728585Y-95082267D01*
X119684839Y-94976657D01*
X119631000Y-94705986D01*
X119631000Y-94430014D01*
X119684839Y-94159343D01*
X119776446Y-93938186D01*
X119790449Y-93904379D01*
X119859532Y-93800989D01*
X119943772Y-93674914D01*
X120138914Y-93479772D01*
X120368378Y-93326450D01*
X120368379Y-93326449D01*
X120517733Y-93264585D01*
X120623343Y-93220839D01*
X120713567Y-93202893D01*
X120894012Y-93167000D01*
X121169988Y-93167000D01*
X121350433Y-93202893D01*
X121350433Y-93202893D01*
G37*
G36*
X131092443Y-92403519D02*
G01*
X131158627Y-92410037D01*
X131328466Y-92461557D01*
X131484991Y-92545222D01*
X131520729Y-92574552D01*
X131622186Y-92657814D01*
X131705448Y-92759271D01*
X131734778Y-92795009D01*
X131818443Y-92951534D01*
X131869963Y-93121373D01*
X131887359Y-93298000D01*
X131869963Y-93474627D01*
X131818443Y-93644466D01*
X131734778Y-93800991D01*
X131705448Y-93836729D01*
X131622186Y-93938186D01*
X131520729Y-94021448D01*
X131484991Y-94050778D01*
X131328466Y-94134443D01*
X131158627Y-94185963D01*
X131092443Y-94192481D01*
X131026260Y-94199000D01*
X130937740Y-94199000D01*
X130871557Y-94192481D01*
X130805373Y-94185963D01*
X130635534Y-94134443D01*
X130479009Y-94050778D01*
X130443271Y-94021448D01*
X130341814Y-93938186D01*
X130258552Y-93836729D01*
X130229222Y-93800991D01*
X130145557Y-93644466D01*
X130094037Y-93474627D01*
X130076641Y-93298000D01*
X130094037Y-93121373D01*
X130145557Y-92951534D01*
X130229222Y-92795009D01*
X130258552Y-92759271D01*
X130341814Y-92657814D01*
X130443271Y-92574552D01*
X130479009Y-92545222D01*
X130635534Y-92461557D01*
X130805373Y-92410037D01*
X130871557Y-92403519D01*
X130937740Y-92397000D01*
X131026260Y-92397000D01*
X131092443Y-92403519D01*
X131092443Y-92403519D01*
G37*
G36*
X133632443Y-92403519D02*
G01*
X133698627Y-92410037D01*
X133868466Y-92461557D01*
X134024991Y-92545222D01*
X134060729Y-92574552D01*
X134162186Y-92657814D01*
X134245448Y-92759271D01*
X134274778Y-92795009D01*
X134358443Y-92951534D01*
X134409963Y-93121373D01*
X134427359Y-93298000D01*
X134409963Y-93474627D01*
X134358443Y-93644466D01*
X134274778Y-93800991D01*
X134245448Y-93836729D01*
X134162186Y-93938186D01*
X134060729Y-94021448D01*
X134024991Y-94050778D01*
X133868466Y-94134443D01*
X133698627Y-94185963D01*
X133632443Y-94192481D01*
X133566260Y-94199000D01*
X133477740Y-94199000D01*
X133411557Y-94192481D01*
X133345373Y-94185963D01*
X133175534Y-94134443D01*
X133019009Y-94050778D01*
X132983271Y-94021448D01*
X132881814Y-93938186D01*
X132798552Y-93836729D01*
X132769222Y-93800991D01*
X132685557Y-93644466D01*
X132634037Y-93474627D01*
X132616641Y-93298000D01*
X132634037Y-93121373D01*
X132685557Y-92951534D01*
X132769222Y-92795009D01*
X132798552Y-92759271D01*
X132881814Y-92657814D01*
X132983271Y-92574552D01*
X133019009Y-92545222D01*
X133175534Y-92461557D01*
X133345373Y-92410037D01*
X133411557Y-92403519D01*
X133477740Y-92397000D01*
X133566260Y-92397000D01*
X133632443Y-92403519D01*
X133632443Y-92403519D01*
G37*
G36*
X136172443Y-92403519D02*
G01*
X136238627Y-92410037D01*
X136408466Y-92461557D01*
X136564991Y-92545222D01*
X136600729Y-92574552D01*
X136702186Y-92657814D01*
X136785448Y-92759271D01*
X136814778Y-92795009D01*
X136898443Y-92951534D01*
X136949963Y-93121373D01*
X136967359Y-93298000D01*
X136949963Y-93474627D01*
X136898443Y-93644466D01*
X136814778Y-93800991D01*
X136785448Y-93836729D01*
X136702186Y-93938186D01*
X136600729Y-94021448D01*
X136564991Y-94050778D01*
X136408466Y-94134443D01*
X136238627Y-94185963D01*
X136172443Y-94192481D01*
X136106260Y-94199000D01*
X136017740Y-94199000D01*
X135951557Y-94192481D01*
X135885373Y-94185963D01*
X135715534Y-94134443D01*
X135559009Y-94050778D01*
X135523271Y-94021448D01*
X135421814Y-93938186D01*
X135338552Y-93836729D01*
X135309222Y-93800991D01*
X135225557Y-93644466D01*
X135174037Y-93474627D01*
X135156641Y-93298000D01*
X135174037Y-93121373D01*
X135225557Y-92951534D01*
X135309222Y-92795009D01*
X135338552Y-92759271D01*
X135421814Y-92657814D01*
X135523271Y-92574552D01*
X135559009Y-92545222D01*
X135715534Y-92461557D01*
X135885373Y-92410037D01*
X135951558Y-92403518D01*
X136017740Y-92397000D01*
X136106260Y-92397000D01*
X136172443Y-92403519D01*
X136172443Y-92403519D01*
G37*
G36*
X138712443Y-92403519D02*
G01*
X138778627Y-92410037D01*
X138948466Y-92461557D01*
X139104991Y-92545222D01*
X139140729Y-92574552D01*
X139242186Y-92657814D01*
X139325448Y-92759271D01*
X139354778Y-92795009D01*
X139438443Y-92951534D01*
X139489963Y-93121373D01*
X139507359Y-93298000D01*
X139489963Y-93474627D01*
X139438443Y-93644466D01*
X139354778Y-93800991D01*
X139325448Y-93836729D01*
X139242186Y-93938186D01*
X139140729Y-94021448D01*
X139104991Y-94050778D01*
X138948466Y-94134443D01*
X138778627Y-94185963D01*
X138712443Y-94192481D01*
X138646260Y-94199000D01*
X138557740Y-94199000D01*
X138491557Y-94192481D01*
X138425373Y-94185963D01*
X138255534Y-94134443D01*
X138099009Y-94050778D01*
X138063271Y-94021448D01*
X137961814Y-93938186D01*
X137878552Y-93836729D01*
X137849222Y-93800991D01*
X137765557Y-93644466D01*
X137714037Y-93474627D01*
X137696641Y-93298000D01*
X137714037Y-93121373D01*
X137765557Y-92951534D01*
X137849222Y-92795009D01*
X137878552Y-92759271D01*
X137961814Y-92657814D01*
X138063271Y-92574552D01*
X138099009Y-92545222D01*
X138255534Y-92461557D01*
X138425373Y-92410037D01*
X138491558Y-92403518D01*
X138557740Y-92397000D01*
X138646260Y-92397000D01*
X138712443Y-92403519D01*
X138712443Y-92403519D01*
G37*
G36*
X141252443Y-92403519D02*
G01*
X141318627Y-92410037D01*
X141488466Y-92461557D01*
X141644991Y-92545222D01*
X141680729Y-92574552D01*
X141782186Y-92657814D01*
X141865448Y-92759271D01*
X141894778Y-92795009D01*
X141978443Y-92951534D01*
X142029963Y-93121373D01*
X142047359Y-93298000D01*
X142029963Y-93474627D01*
X141978443Y-93644466D01*
X141894778Y-93800991D01*
X141865448Y-93836729D01*
X141782186Y-93938186D01*
X141680729Y-94021448D01*
X141644991Y-94050778D01*
X141488466Y-94134443D01*
X141318627Y-94185963D01*
X141252443Y-94192481D01*
X141186260Y-94199000D01*
X141097740Y-94199000D01*
X141031557Y-94192481D01*
X140965373Y-94185963D01*
X140795534Y-94134443D01*
X140639009Y-94050778D01*
X140603271Y-94021448D01*
X140501814Y-93938186D01*
X140418552Y-93836729D01*
X140389222Y-93800991D01*
X140305557Y-93644466D01*
X140254037Y-93474627D01*
X140236641Y-93298000D01*
X140254037Y-93121373D01*
X140305557Y-92951534D01*
X140389222Y-92795009D01*
X140418552Y-92759271D01*
X140501814Y-92657814D01*
X140603271Y-92574552D01*
X140639009Y-92545222D01*
X140795534Y-92461557D01*
X140965373Y-92410037D01*
X141031558Y-92403518D01*
X141097740Y-92397000D01*
X141186260Y-92397000D01*
X141252443Y-92403519D01*
X141252443Y-92403519D01*
G37*
G36*
X143792443Y-92403519D02*
G01*
X143858627Y-92410037D01*
X144028466Y-92461557D01*
X144184991Y-92545222D01*
X144220729Y-92574552D01*
X144322186Y-92657814D01*
X144405448Y-92759271D01*
X144434778Y-92795009D01*
X144518443Y-92951534D01*
X144569963Y-93121373D01*
X144587359Y-93298000D01*
X144569963Y-93474627D01*
X144518443Y-93644466D01*
X144434778Y-93800991D01*
X144405448Y-93836729D01*
X144322186Y-93938186D01*
X144220729Y-94021448D01*
X144184991Y-94050778D01*
X144028466Y-94134443D01*
X143858627Y-94185963D01*
X143792443Y-94192481D01*
X143726260Y-94199000D01*
X143637740Y-94199000D01*
X143571557Y-94192481D01*
X143505373Y-94185963D01*
X143335534Y-94134443D01*
X143179009Y-94050778D01*
X143143271Y-94021448D01*
X143041814Y-93938186D01*
X142958552Y-93836729D01*
X142929222Y-93800991D01*
X142845557Y-93644466D01*
X142794037Y-93474627D01*
X142776641Y-93298000D01*
X142794037Y-93121373D01*
X142845557Y-92951534D01*
X142929222Y-92795009D01*
X142958552Y-92759271D01*
X143041814Y-92657814D01*
X143143271Y-92574552D01*
X143179009Y-92545222D01*
X143335534Y-92461557D01*
X143505373Y-92410037D01*
X143571558Y-92403518D01*
X143637740Y-92397000D01*
X143726260Y-92397000D01*
X143792443Y-92403519D01*
X143792443Y-92403519D01*
G37*
G36*
X146332443Y-92403519D02*
G01*
X146398627Y-92410037D01*
X146568466Y-92461557D01*
X146724991Y-92545222D01*
X146760729Y-92574552D01*
X146862186Y-92657814D01*
X146945448Y-92759271D01*
X146974778Y-92795009D01*
X147058443Y-92951534D01*
X147109963Y-93121373D01*
X147127359Y-93298000D01*
X147109963Y-93474627D01*
X147058443Y-93644466D01*
X146974778Y-93800991D01*
X146945448Y-93836729D01*
X146862186Y-93938186D01*
X146760729Y-94021448D01*
X146724991Y-94050778D01*
X146568466Y-94134443D01*
X146398627Y-94185963D01*
X146332443Y-94192481D01*
X146266260Y-94199000D01*
X146177740Y-94199000D01*
X146111557Y-94192481D01*
X146045373Y-94185963D01*
X145875534Y-94134443D01*
X145719009Y-94050778D01*
X145683271Y-94021448D01*
X145581814Y-93938186D01*
X145498552Y-93836729D01*
X145469222Y-93800991D01*
X145385557Y-93644466D01*
X145334037Y-93474627D01*
X145316641Y-93298000D01*
X145334037Y-93121373D01*
X145385557Y-92951534D01*
X145469222Y-92795009D01*
X145498552Y-92759271D01*
X145581814Y-92657814D01*
X145683271Y-92574552D01*
X145719009Y-92545222D01*
X145875534Y-92461557D01*
X146045373Y-92410037D01*
X146111558Y-92403518D01*
X146177740Y-92397000D01*
X146266260Y-92397000D01*
X146332443Y-92403519D01*
X146332443Y-92403519D01*
G37*
G36*
X148872443Y-92403519D02*
G01*
X148938627Y-92410037D01*
X149108466Y-92461557D01*
X149264991Y-92545222D01*
X149300729Y-92574552D01*
X149402186Y-92657814D01*
X149485448Y-92759271D01*
X149514778Y-92795009D01*
X149598443Y-92951534D01*
X149649963Y-93121373D01*
X149667359Y-93298000D01*
X149649963Y-93474627D01*
X149598443Y-93644466D01*
X149514778Y-93800991D01*
X149485448Y-93836729D01*
X149402186Y-93938186D01*
X149300729Y-94021448D01*
X149264991Y-94050778D01*
X149108466Y-94134443D01*
X148938627Y-94185963D01*
X148872443Y-94192481D01*
X148806260Y-94199000D01*
X148717740Y-94199000D01*
X148651557Y-94192481D01*
X148585373Y-94185963D01*
X148415534Y-94134443D01*
X148259009Y-94050778D01*
X148223271Y-94021448D01*
X148121814Y-93938186D01*
X148038552Y-93836729D01*
X148009222Y-93800991D01*
X147925557Y-93644466D01*
X147874037Y-93474627D01*
X147856641Y-93298000D01*
X147874037Y-93121373D01*
X147925557Y-92951534D01*
X148009222Y-92795009D01*
X148038552Y-92759271D01*
X148121814Y-92657814D01*
X148223271Y-92574552D01*
X148259009Y-92545222D01*
X148415534Y-92461557D01*
X148585373Y-92410037D01*
X148651558Y-92403518D01*
X148717740Y-92397000D01*
X148806260Y-92397000D01*
X148872443Y-92403519D01*
X148872443Y-92403519D01*
G37*
G36*
X151412443Y-92403519D02*
G01*
X151478627Y-92410037D01*
X151648466Y-92461557D01*
X151804991Y-92545222D01*
X151840729Y-92574552D01*
X151942186Y-92657814D01*
X152025448Y-92759271D01*
X152054778Y-92795009D01*
X152138443Y-92951534D01*
X152189963Y-93121373D01*
X152207359Y-93298000D01*
X152189963Y-93474627D01*
X152138443Y-93644466D01*
X152054778Y-93800991D01*
X152025448Y-93836729D01*
X151942186Y-93938186D01*
X151840729Y-94021448D01*
X151804991Y-94050778D01*
X151648466Y-94134443D01*
X151478627Y-94185963D01*
X151412443Y-94192481D01*
X151346260Y-94199000D01*
X151257740Y-94199000D01*
X151191557Y-94192481D01*
X151125373Y-94185963D01*
X150955534Y-94134443D01*
X150799009Y-94050778D01*
X150763271Y-94021448D01*
X150661814Y-93938186D01*
X150578552Y-93836729D01*
X150549222Y-93800991D01*
X150465557Y-93644466D01*
X150414037Y-93474627D01*
X150396641Y-93298000D01*
X150414037Y-93121373D01*
X150465557Y-92951534D01*
X150549222Y-92795009D01*
X150578552Y-92759271D01*
X150661814Y-92657814D01*
X150763271Y-92574552D01*
X150799009Y-92545222D01*
X150955534Y-92461557D01*
X151125373Y-92410037D01*
X151191558Y-92403518D01*
X151257740Y-92397000D01*
X151346260Y-92397000D01*
X151412443Y-92403519D01*
X151412443Y-92403519D01*
G37*
G36*
X126012443Y-92403519D02*
G01*
X126078627Y-92410037D01*
X126248466Y-92461557D01*
X126404991Y-92545222D01*
X126440729Y-92574552D01*
X126542186Y-92657814D01*
X126625448Y-92759271D01*
X126654778Y-92795009D01*
X126738443Y-92951534D01*
X126789963Y-93121373D01*
X126807359Y-93298000D01*
X126789963Y-93474627D01*
X126738443Y-93644466D01*
X126654778Y-93800991D01*
X126625448Y-93836729D01*
X126542186Y-93938186D01*
X126440729Y-94021448D01*
X126404991Y-94050778D01*
X126248466Y-94134443D01*
X126078627Y-94185963D01*
X126012443Y-94192481D01*
X125946260Y-94199000D01*
X125857740Y-94199000D01*
X125791557Y-94192481D01*
X125725373Y-94185963D01*
X125555534Y-94134443D01*
X125399009Y-94050778D01*
X125363271Y-94021448D01*
X125261814Y-93938186D01*
X125178552Y-93836729D01*
X125149222Y-93800991D01*
X125065557Y-93644466D01*
X125014037Y-93474627D01*
X124996641Y-93298000D01*
X125014037Y-93121373D01*
X125065557Y-92951534D01*
X125149222Y-92795009D01*
X125178552Y-92759271D01*
X125261814Y-92657814D01*
X125363271Y-92574552D01*
X125399009Y-92545222D01*
X125555534Y-92461557D01*
X125725373Y-92410037D01*
X125791557Y-92403519D01*
X125857740Y-92397000D01*
X125946260Y-92397000D01*
X126012443Y-92403519D01*
X126012443Y-92403519D01*
G37*
G36*
X153952443Y-92403519D02*
G01*
X154018627Y-92410037D01*
X154188466Y-92461557D01*
X154344991Y-92545222D01*
X154380729Y-92574552D01*
X154482186Y-92657814D01*
X154565448Y-92759271D01*
X154594778Y-92795009D01*
X154678443Y-92951534D01*
X154729963Y-93121373D01*
X154747359Y-93298000D01*
X154729963Y-93474627D01*
X154678443Y-93644466D01*
X154594778Y-93800991D01*
X154565448Y-93836729D01*
X154482186Y-93938186D01*
X154380729Y-94021448D01*
X154344991Y-94050778D01*
X154188466Y-94134443D01*
X154018627Y-94185963D01*
X153952443Y-94192481D01*
X153886260Y-94199000D01*
X153797740Y-94199000D01*
X153731557Y-94192481D01*
X153665373Y-94185963D01*
X153495534Y-94134443D01*
X153339009Y-94050778D01*
X153303271Y-94021448D01*
X153201814Y-93938186D01*
X153118552Y-93836729D01*
X153089222Y-93800991D01*
X153005557Y-93644466D01*
X152954037Y-93474627D01*
X152936641Y-93298000D01*
X152954037Y-93121373D01*
X153005557Y-92951534D01*
X153089222Y-92795009D01*
X153118552Y-92759271D01*
X153201814Y-92657814D01*
X153303271Y-92574552D01*
X153339009Y-92545222D01*
X153495534Y-92461557D01*
X153665373Y-92410037D01*
X153731558Y-92403518D01*
X153797740Y-92397000D01*
X153886260Y-92397000D01*
X153952443Y-92403519D01*
X153952443Y-92403519D01*
G37*
G36*
X156492443Y-92403519D02*
G01*
X156558627Y-92410037D01*
X156728466Y-92461557D01*
X156884991Y-92545222D01*
X156920729Y-92574552D01*
X157022186Y-92657814D01*
X157105448Y-92759271D01*
X157134778Y-92795009D01*
X157218443Y-92951534D01*
X157269963Y-93121373D01*
X157287359Y-93298000D01*
X157269963Y-93474627D01*
X157218443Y-93644466D01*
X157134778Y-93800991D01*
X157105448Y-93836729D01*
X157022186Y-93938186D01*
X156920729Y-94021448D01*
X156884991Y-94050778D01*
X156728466Y-94134443D01*
X156558627Y-94185963D01*
X156492443Y-94192481D01*
X156426260Y-94199000D01*
X156337740Y-94199000D01*
X156271557Y-94192481D01*
X156205373Y-94185963D01*
X156035534Y-94134443D01*
X155879009Y-94050778D01*
X155843271Y-94021448D01*
X155741814Y-93938186D01*
X155658552Y-93836729D01*
X155629222Y-93800991D01*
X155545557Y-93644466D01*
X155494037Y-93474627D01*
X155476641Y-93298000D01*
X155494037Y-93121373D01*
X155545557Y-92951534D01*
X155629222Y-92795009D01*
X155658552Y-92759271D01*
X155741814Y-92657814D01*
X155843271Y-92574552D01*
X155879009Y-92545222D01*
X156035534Y-92461557D01*
X156205373Y-92410037D01*
X156271558Y-92403518D01*
X156337740Y-92397000D01*
X156426260Y-92397000D01*
X156492443Y-92403519D01*
X156492443Y-92403519D01*
G37*
G36*
X159032443Y-92403519D02*
G01*
X159098627Y-92410037D01*
X159268466Y-92461557D01*
X159424991Y-92545222D01*
X159460729Y-92574552D01*
X159562186Y-92657814D01*
X159645448Y-92759271D01*
X159674778Y-92795009D01*
X159758443Y-92951534D01*
X159809963Y-93121373D01*
X159827359Y-93298000D01*
X159809963Y-93474627D01*
X159758443Y-93644466D01*
X159674778Y-93800991D01*
X159645448Y-93836729D01*
X159562186Y-93938186D01*
X159460729Y-94021448D01*
X159424991Y-94050778D01*
X159268466Y-94134443D01*
X159098627Y-94185963D01*
X159032443Y-94192481D01*
X158966260Y-94199000D01*
X158877740Y-94199000D01*
X158811557Y-94192481D01*
X158745373Y-94185963D01*
X158575534Y-94134443D01*
X158419009Y-94050778D01*
X158383271Y-94021448D01*
X158281814Y-93938186D01*
X158198552Y-93836729D01*
X158169222Y-93800991D01*
X158085557Y-93644466D01*
X158034037Y-93474627D01*
X158016641Y-93298000D01*
X158034037Y-93121373D01*
X158085557Y-92951534D01*
X158169222Y-92795009D01*
X158198552Y-92759271D01*
X158281814Y-92657814D01*
X158383271Y-92574552D01*
X158419009Y-92545222D01*
X158575534Y-92461557D01*
X158745373Y-92410037D01*
X158811558Y-92403518D01*
X158877740Y-92397000D01*
X158966260Y-92397000D01*
X159032443Y-92403519D01*
X159032443Y-92403519D01*
G37*
G36*
X161572443Y-92403519D02*
G01*
X161638627Y-92410037D01*
X161808466Y-92461557D01*
X161964991Y-92545222D01*
X162000729Y-92574552D01*
X162102186Y-92657814D01*
X162185448Y-92759271D01*
X162214778Y-92795009D01*
X162298443Y-92951534D01*
X162349963Y-93121373D01*
X162367359Y-93298000D01*
X162349963Y-93474627D01*
X162298443Y-93644466D01*
X162214778Y-93800991D01*
X162185448Y-93836729D01*
X162102186Y-93938186D01*
X162000729Y-94021448D01*
X161964991Y-94050778D01*
X161808466Y-94134443D01*
X161638627Y-94185963D01*
X161572443Y-94192481D01*
X161506260Y-94199000D01*
X161417740Y-94199000D01*
X161351557Y-94192481D01*
X161285373Y-94185963D01*
X161115534Y-94134443D01*
X160959009Y-94050778D01*
X160923271Y-94021448D01*
X160821814Y-93938186D01*
X160738552Y-93836729D01*
X160709222Y-93800991D01*
X160625557Y-93644466D01*
X160574037Y-93474627D01*
X160556641Y-93298000D01*
X160574037Y-93121373D01*
X160625557Y-92951534D01*
X160709222Y-92795009D01*
X160738552Y-92759271D01*
X160821814Y-92657814D01*
X160923271Y-92574552D01*
X160959009Y-92545222D01*
X161115534Y-92461557D01*
X161285373Y-92410037D01*
X161351558Y-92403518D01*
X161417740Y-92397000D01*
X161506260Y-92397000D01*
X161572443Y-92403519D01*
X161572443Y-92403519D01*
G37*
G36*
X164112443Y-92403519D02*
G01*
X164178627Y-92410037D01*
X164348466Y-92461557D01*
X164504991Y-92545222D01*
X164540729Y-92574552D01*
X164642186Y-92657814D01*
X164725448Y-92759271D01*
X164754778Y-92795009D01*
X164838443Y-92951534D01*
X164889963Y-93121373D01*
X164907359Y-93298000D01*
X164889963Y-93474627D01*
X164838443Y-93644466D01*
X164754778Y-93800991D01*
X164725448Y-93836729D01*
X164642186Y-93938186D01*
X164540729Y-94021448D01*
X164504991Y-94050778D01*
X164348466Y-94134443D01*
X164178627Y-94185963D01*
X164112443Y-94192481D01*
X164046260Y-94199000D01*
X163957740Y-94199000D01*
X163891557Y-94192481D01*
X163825373Y-94185963D01*
X163655534Y-94134443D01*
X163499009Y-94050778D01*
X163463271Y-94021448D01*
X163361814Y-93938186D01*
X163278552Y-93836729D01*
X163249222Y-93800991D01*
X163165557Y-93644466D01*
X163114037Y-93474627D01*
X163096641Y-93298000D01*
X163114037Y-93121373D01*
X163165557Y-92951534D01*
X163249222Y-92795009D01*
X163278552Y-92759271D01*
X163361814Y-92657814D01*
X163463271Y-92574552D01*
X163499009Y-92545222D01*
X163655534Y-92461557D01*
X163825373Y-92410037D01*
X163891558Y-92403518D01*
X163957740Y-92397000D01*
X164046260Y-92397000D01*
X164112443Y-92403519D01*
X164112443Y-92403519D01*
G37*
G36*
X166652443Y-92403519D02*
G01*
X166718627Y-92410037D01*
X166888466Y-92461557D01*
X167044991Y-92545222D01*
X167080729Y-92574552D01*
X167182186Y-92657814D01*
X167265448Y-92759271D01*
X167294778Y-92795009D01*
X167378443Y-92951534D01*
X167429963Y-93121373D01*
X167447359Y-93298000D01*
X167429963Y-93474627D01*
X167378443Y-93644466D01*
X167294778Y-93800991D01*
X167265448Y-93836729D01*
X167182186Y-93938186D01*
X167080729Y-94021448D01*
X167044991Y-94050778D01*
X166888466Y-94134443D01*
X166718627Y-94185963D01*
X166652443Y-94192481D01*
X166586260Y-94199000D01*
X166497740Y-94199000D01*
X166431557Y-94192481D01*
X166365373Y-94185963D01*
X166195534Y-94134443D01*
X166039009Y-94050778D01*
X166003271Y-94021448D01*
X165901814Y-93938186D01*
X165818552Y-93836729D01*
X165789222Y-93800991D01*
X165705557Y-93644466D01*
X165654037Y-93474627D01*
X165636641Y-93298000D01*
X165654037Y-93121373D01*
X165705557Y-92951534D01*
X165789222Y-92795009D01*
X165818552Y-92759271D01*
X165901814Y-92657814D01*
X166003271Y-92574552D01*
X166039009Y-92545222D01*
X166195534Y-92461557D01*
X166365373Y-92410037D01*
X166431558Y-92403518D01*
X166497740Y-92397000D01*
X166586260Y-92397000D01*
X166652443Y-92403519D01*
X166652443Y-92403519D01*
G37*
G36*
X169192443Y-92403519D02*
G01*
X169258627Y-92410037D01*
X169428466Y-92461557D01*
X169584991Y-92545222D01*
X169620729Y-92574552D01*
X169722186Y-92657814D01*
X169805448Y-92759271D01*
X169834778Y-92795009D01*
X169918443Y-92951534D01*
X169969963Y-93121373D01*
X169987359Y-93298000D01*
X169969963Y-93474627D01*
X169918443Y-93644466D01*
X169834778Y-93800991D01*
X169805448Y-93836729D01*
X169722186Y-93938186D01*
X169620729Y-94021448D01*
X169584991Y-94050778D01*
X169428466Y-94134443D01*
X169258627Y-94185963D01*
X169192443Y-94192481D01*
X169126260Y-94199000D01*
X169037740Y-94199000D01*
X168971557Y-94192481D01*
X168905373Y-94185963D01*
X168735534Y-94134443D01*
X168579009Y-94050778D01*
X168543271Y-94021448D01*
X168441814Y-93938186D01*
X168358552Y-93836729D01*
X168329222Y-93800991D01*
X168245557Y-93644466D01*
X168194037Y-93474627D01*
X168176641Y-93298000D01*
X168194037Y-93121373D01*
X168245557Y-92951534D01*
X168329222Y-92795009D01*
X168358552Y-92759271D01*
X168441814Y-92657814D01*
X168543271Y-92574552D01*
X168579009Y-92545222D01*
X168735534Y-92461557D01*
X168905373Y-92410037D01*
X168971558Y-92403518D01*
X169037740Y-92397000D01*
X169126260Y-92397000D01*
X169192443Y-92403519D01*
X169192443Y-92403519D01*
G37*
G36*
X171732443Y-92403519D02*
G01*
X171798627Y-92410037D01*
X171968466Y-92461557D01*
X172124991Y-92545222D01*
X172160729Y-92574552D01*
X172262186Y-92657814D01*
X172345448Y-92759271D01*
X172374778Y-92795009D01*
X172458443Y-92951534D01*
X172509963Y-93121373D01*
X172527359Y-93298000D01*
X172509963Y-93474627D01*
X172458443Y-93644466D01*
X172374778Y-93800991D01*
X172345448Y-93836729D01*
X172262186Y-93938186D01*
X172160729Y-94021448D01*
X172124991Y-94050778D01*
X171968466Y-94134443D01*
X171798627Y-94185963D01*
X171732443Y-94192481D01*
X171666260Y-94199000D01*
X171577740Y-94199000D01*
X171511557Y-94192481D01*
X171445373Y-94185963D01*
X171275534Y-94134443D01*
X171119009Y-94050778D01*
X171083271Y-94021448D01*
X170981814Y-93938186D01*
X170898552Y-93836729D01*
X170869222Y-93800991D01*
X170785557Y-93644466D01*
X170734037Y-93474627D01*
X170716641Y-93298000D01*
X170734037Y-93121373D01*
X170785557Y-92951534D01*
X170869222Y-92795009D01*
X170898552Y-92759271D01*
X170981814Y-92657814D01*
X171083271Y-92574552D01*
X171119009Y-92545222D01*
X171275534Y-92461557D01*
X171445373Y-92410037D01*
X171511558Y-92403518D01*
X171577740Y-92397000D01*
X171666260Y-92397000D01*
X171732443Y-92403519D01*
X171732443Y-92403519D01*
G37*
G36*
X174272443Y-92403519D02*
G01*
X174338627Y-92410037D01*
X174508466Y-92461557D01*
X174664991Y-92545222D01*
X174700729Y-92574552D01*
X174802186Y-92657814D01*
X174885448Y-92759271D01*
X174914778Y-92795009D01*
X174998443Y-92951534D01*
X175049963Y-93121373D01*
X175067359Y-93298000D01*
X175049963Y-93474627D01*
X174998443Y-93644466D01*
X174914778Y-93800991D01*
X174885448Y-93836729D01*
X174802186Y-93938186D01*
X174700729Y-94021448D01*
X174664991Y-94050778D01*
X174508466Y-94134443D01*
X174338627Y-94185963D01*
X174272443Y-94192481D01*
X174206260Y-94199000D01*
X174117740Y-94199000D01*
X174051557Y-94192481D01*
X173985373Y-94185963D01*
X173815534Y-94134443D01*
X173659009Y-94050778D01*
X173623271Y-94021448D01*
X173521814Y-93938186D01*
X173438552Y-93836729D01*
X173409222Y-93800991D01*
X173325557Y-93644466D01*
X173274037Y-93474627D01*
X173256641Y-93298000D01*
X173274037Y-93121373D01*
X173325557Y-92951534D01*
X173409222Y-92795009D01*
X173438552Y-92759271D01*
X173521814Y-92657814D01*
X173623271Y-92574552D01*
X173659009Y-92545222D01*
X173815534Y-92461557D01*
X173985373Y-92410037D01*
X174051558Y-92403518D01*
X174117740Y-92397000D01*
X174206260Y-92397000D01*
X174272443Y-92403519D01*
X174272443Y-92403519D01*
G37*
G36*
X128552443Y-92403519D02*
G01*
X128618627Y-92410037D01*
X128788466Y-92461557D01*
X128944991Y-92545222D01*
X128980729Y-92574552D01*
X129082186Y-92657814D01*
X129165448Y-92759271D01*
X129194778Y-92795009D01*
X129278443Y-92951534D01*
X129329963Y-93121373D01*
X129347359Y-93298000D01*
X129329963Y-93474627D01*
X129278443Y-93644466D01*
X129194778Y-93800991D01*
X129165448Y-93836729D01*
X129082186Y-93938186D01*
X128980729Y-94021448D01*
X128944991Y-94050778D01*
X128788466Y-94134443D01*
X128618627Y-94185963D01*
X128552443Y-94192481D01*
X128486260Y-94199000D01*
X128397740Y-94199000D01*
X128331557Y-94192481D01*
X128265373Y-94185963D01*
X128095534Y-94134443D01*
X127939009Y-94050778D01*
X127903271Y-94021448D01*
X127801814Y-93938186D01*
X127718552Y-93836729D01*
X127689222Y-93800991D01*
X127605557Y-93644466D01*
X127554037Y-93474627D01*
X127536641Y-93298000D01*
X127554037Y-93121373D01*
X127605557Y-92951534D01*
X127689222Y-92795009D01*
X127718552Y-92759271D01*
X127801814Y-92657814D01*
X127903271Y-92574552D01*
X127939009Y-92545222D01*
X128095534Y-92461557D01*
X128265373Y-92410037D01*
X128331557Y-92403519D01*
X128397740Y-92397000D01*
X128486260Y-92397000D01*
X128552443Y-92403519D01*
X128552443Y-92403519D01*
G37*
M02*
