G04 #@! TF.GenerationSoftware,KiCad,Pcbnew,(5.1.2-1)-1*
G04 #@! TF.CreationDate,2019-10-23T09:51:25+02:00*
G04 #@! TF.ProjectId,rpiz_pi_platter,7270697a-5f70-4695-9f70-6c6174746572,1.0*
G04 #@! TF.SameCoordinates,Original*
G04 #@! TF.FileFunction,Legend,Bot*
G04 #@! TF.FilePolarity,Positive*
%FSLAX46Y46*%
G04 Gerber Fmt 4.6, Leading zero omitted, Abs format (unit mm)*
G04 Created by KiCad (PCBNEW (5.1.2-1)-1) date 2019-10-23 09:51:25*
%MOMM*%
%LPD*%
G04 APERTURE LIST*
%ADD10C,0.120000*%
%ADD11C,0.150000*%
G04 APERTURE END LIST*
D10*
X142682000Y-105998000D02*
X142682000Y-104668000D01*
X142682000Y-104668000D02*
X141352000Y-104668000D01*
X140082000Y-104668000D02*
X124782000Y-104668000D01*
X124782000Y-107328000D02*
X124782000Y-104668000D01*
X140082000Y-107328000D02*
X124782000Y-107328000D01*
X140082000Y-107328000D02*
X140082000Y-104668000D01*
X173102000Y-107328000D02*
X173102000Y-104668000D01*
X173102000Y-107328000D02*
X152722000Y-107328000D01*
X152722000Y-107328000D02*
X152722000Y-104668000D01*
X173102000Y-104668000D02*
X152722000Y-104668000D01*
X175702000Y-104668000D02*
X174372000Y-104668000D01*
X175702000Y-105998000D02*
X175702000Y-104668000D01*
X124572000Y-91968000D02*
X124572000Y-94568000D01*
X124572000Y-91968000D02*
X175492000Y-91968000D01*
X175492000Y-91968000D02*
X175492000Y-97168000D01*
X127172000Y-97168000D02*
X175492000Y-97168000D01*
X127172000Y-94568000D02*
X127172000Y-97168000D01*
X124572000Y-94568000D02*
X127172000Y-94568000D01*
X124572000Y-97168000D02*
X125902000Y-97168000D01*
X124572000Y-95838000D02*
X124572000Y-97168000D01*
D11*
X143574380Y-105664666D02*
X144288666Y-105664666D01*
X144431523Y-105617047D01*
X144526761Y-105521809D01*
X144574380Y-105378952D01*
X144574380Y-105283714D01*
X143669619Y-106093238D02*
X143622000Y-106140857D01*
X143574380Y-106236095D01*
X143574380Y-106474190D01*
X143622000Y-106569428D01*
X143669619Y-106617047D01*
X143764857Y-106664666D01*
X143860095Y-106664666D01*
X144002952Y-106617047D01*
X144574380Y-106045619D01*
X144574380Y-106664666D01*
X176594380Y-105664666D02*
X177308666Y-105664666D01*
X177451523Y-105617047D01*
X177546761Y-105521809D01*
X177594380Y-105378952D01*
X177594380Y-105283714D01*
X176594380Y-106045619D02*
X176594380Y-106664666D01*
X176975333Y-106331333D01*
X176975333Y-106474190D01*
X177022952Y-106569428D01*
X177070571Y-106617047D01*
X177165809Y-106664666D01*
X177403904Y-106664666D01*
X177499142Y-106617047D01*
X177546761Y-106569428D01*
X177594380Y-106474190D01*
X177594380Y-106188476D01*
X177546761Y-106093238D01*
X177499142Y-106045619D01*
X142535333Y-98090380D02*
X142535333Y-98804666D01*
X142582952Y-98947523D01*
X142678190Y-99042761D01*
X142821047Y-99090380D01*
X142916285Y-99090380D01*
X141535333Y-99090380D02*
X142106761Y-99090380D01*
X141821047Y-99090380D02*
X141821047Y-98090380D01*
X141916285Y-98233238D01*
X142011523Y-98328476D01*
X142106761Y-98376095D01*
M02*
